<svg width="61" height="60" viewBox="0 0 61 60" fill="none" xmlns="http://www.w3.org/2000/svg">
<g clip-path="url(#clip0_2_136)">
<path opacity="0.15" d="M60.98 56.25V3.75C60.98 1.67893 59.301 0 57.23 0L4.72998 0C2.65891 0 0.97998 1.67893 0.97998 3.75V56.25C0.97998 58.3211 2.65891 60 4.72998 60H57.23C59.301 60 60.98 58.3211 60.98 56.25Z" fill="white"/>
<path opacity="0.5" d="M51.98 37.82V4.18C51.98 1.87145 50.1085 0 47.8 0L14.16 0C11.8514 0 9.97998 1.87145 9.97998 4.18V37.82C9.97998 40.1286 11.8514 42 14.16 42H47.8C50.1085 42 51.98 40.1286 51.98 37.82Z" fill="#BFC6FE"/>
<path d="M58.1201 44.98H40.0901L42.0301 25.01H53.6201L59.1001 34.91L58.1201 44.98Z" fill="#BFC6F9"/>
<path d="M58.15 45L40.07 45.22C40.0054 45.2203 39.9436 45.1933 39.8998 45.1457C39.8561 45.0982 39.8344 45.0344 39.84 44.97L41.6 24.97C41.6293 24.736 41.8243 24.558 42.06 24.55C45.93 24.55 49.8 24.45 53.66 24.45C53.8325 24.4505 53.992 24.5417 54.08 24.69C55.9 27.99 57.65 31.33 59.43 34.69C59.453 34.7513 59.453 34.8188 59.43 34.88L58.83 40L58.15 45ZM58.09 44.93L58.39 39.84L58.72 34.9V35.11C56.84 31.84 54.94 28.58 53.12 25.28L53.53 25.52C49.67 25.52 45.81 25.46 41.95 25.42L42.41 25L40.34 45L40.12 44.75L58.09 44.93Z" fill="#5161CF"/>
<path d="M40.34 44.98H10.29L13.48 12.03H43.53L40.34 44.98Z" fill="#EFF1FD"/>
<path d="M40.3701 45L25.3701 45.28C20.3701 45.37 15.2701 45.4 10.2001 45.45C9.96646 45.4339 9.78864 45.2339 9.80008 45L11.3601 28.5C11.9001 23.0067 12.4734 17.5067 13.0801 12C13.1098 11.7789 13.297 11.613 13.5201 11.61L43.5201 11.75C43.5867 11.7494 43.6502 11.7777 43.6943 11.8276C43.7384 11.8774 43.7588 11.944 43.7501 12.01L40.3701 45ZM40.3101 44.93L43.3101 12.02L43.5501 12.28L13.4901 12.42L13.9301 12.02C13.4701 17.5133 12.9767 23.0033 12.4501 28.49L10.7801 45L10.3401 44.51C15.3401 44.51 20.2301 44.59 25.2101 44.69L40.3101 44.93Z" fill="#5161CF"/>
<path d="M24.3439 48.4849C26.4755 46.5194 26.7588 43.3592 24.9767 41.4266C23.1945 39.494 20.0219 39.5207 17.8903 41.4863C15.7587 43.4519 15.4755 46.612 17.2576 48.5446C19.0397 50.4772 22.2124 50.4505 24.3439 48.4849Z" fill="#2D2FA7"/>
<path d="M16.16 45C16.0072 46.2642 16.4292 47.5303 17.31 48.45C18.2021 49.3219 19.4136 49.7885 20.66 49.74C21.9484 49.7024 23.1773 49.1894 24.11 48.3C25.0386 47.4386 25.6126 46.262 25.72 45C25.8201 43.8321 25.4204 42.6765 24.62 41.82C23.8139 40.9878 22.7085 40.5126 21.55 40.5C20.2982 40.4808 19.0774 40.8901 18.09 41.66C17.0259 42.4703 16.3307 43.6733 16.16 45ZM16.06 45C16.183 43.6036 16.7792 42.2911 17.75 41.28C18.7635 40.1956 20.1666 39.5588 21.65 39.51C23.0682 39.4574 24.4359 40.0404 25.38 41.1C26.3018 42.1763 26.717 43.5966 26.52 45C26.342 46.4577 25.6293 47.7975 24.52 48.76C23.4445 49.7197 22.0515 50.247 20.61 50.2401C19.2732 50.2221 18.0102 49.6235 17.15 48.6C16.332 47.5876 15.941 46.2961 16.06 45Z" fill="#5161CF"/>
<path d="M46.8201 26.77L46.0601 34.59H56.7201L52.5301 26.77H46.8201Z" fill="white"/>
<path d="M46.86 26.8L46.3 34.59L46.09 34.35L56.76 34.15L56.32 34.83C55.59 33.54 54.86 32.26 54.16 30.96C53.46 29.66 52.8 28.32 52.16 26.96L52.5 27.15C51.6 27.15 50.7 27.05 49.76 26.99L46.86 26.8ZM46.79 26.73C47.69 26.66 48.62 26.57 49.59 26.51C50.56 26.45 51.59 26.37 52.59 26.35C52.719 26.3469 52.8402 26.4114 52.91 26.52C53.65 27.79 54.4 29.07 55.1 30.37C55.8 31.67 56.46 33 57.1 34.37C57.2032 34.5913 57.1154 34.8548 56.9 34.97C56.8258 35.0086 56.7436 35.0292 56.66 35.03L46.02 34.83C45.9592 34.8312 45.9012 34.8047 45.8623 34.758C45.8234 34.7113 45.8078 34.6495 45.82 34.59L46.79 26.73Z" fill="#5161CF"/>
<path d="M52.0549 48.4802C54.1864 46.5147 54.4697 43.3545 52.6876 41.4219C50.9055 39.4893 47.7328 39.516 45.6012 41.4816C43.4697 43.4472 43.1864 46.6073 44.9685 48.5399C46.7506 50.4725 49.9233 50.4458 52.0549 48.4802Z" fill="#2D2FA7"/>
<path d="M43.87 45C43.7629 46.2505 44.2346 47.4813 45.15 48.34C46.0408 49.1277 47.202 49.5398 48.39 49.49C49.6154 49.4528 50.7894 48.9895 51.71 48.18C52.6539 47.3654 53.2689 46.235 53.44 45C53.6052 43.8026 53.2428 42.5924 52.4466 41.683C51.6504 40.7736 50.4987 40.2544 49.29 40.26C47.9774 40.2352 46.7009 40.6903 45.7 41.54C44.661 42.4096 44.004 43.6517 43.87 45ZM43.77 45C43.9327 43.6263 44.565 42.351 45.56 41.39C46.5713 40.3923 47.9203 39.8106 49.34 39.76C50.7163 39.7057 52.0482 40.2528 52.989 41.2588C53.9297 42.2649 54.3864 43.6304 54.24 45C54.1131 46.483 53.4395 47.8658 52.35 48.88C51.2697 49.9055 49.8395 50.4812 48.35 50.49C46.9551 50.4756 45.6435 49.8235 44.79 48.72C43.9847 47.6571 43.6195 46.325 43.77 45Z" fill="#5161CF"/>
<path d="M22.826 46.6702C23.8898 45.6893 24.0298 44.1107 23.1387 43.1444C22.2476 42.1781 20.6629 42.1899 19.5992 43.1709C18.5354 44.1518 18.3954 45.7303 19.2865 46.6966C20.1776 47.6629 21.7623 47.6511 22.826 46.6702Z" fill="white"/>
<path d="M18.7601 44.92C18.715 45.5322 18.9867 46.1247 19.4801 46.49C19.9287 46.8054 20.4734 46.954 21.0201 46.91C22.1562 46.8585 23.1061 46.0289 23.3101 44.91C23.4 44.3546 23.2445 43.7875 22.8838 43.3558C22.523 42.924 21.9926 42.6702 21.4301 42.66C20.7996 42.6274 20.1785 42.8226 19.6801 43.21C19.1452 43.6241 18.8109 44.2455 18.7601 44.92ZM18.6601 44.92C18.7477 44.2279 19.0563 43.5826 19.5401 43.08C20.0474 42.541 20.7412 42.2155 21.4801 42.17C22.1977 42.1349 22.8962 42.4077 23.4001 42.92C23.9149 43.4526 24.1739 44.182 24.1101 44.92C24.0544 45.7242 23.6973 46.4777 23.1101 47.03C22.521 47.6075 21.7248 47.9245 20.9001 47.91C20.1546 47.8978 19.4613 47.5251 19.0401 46.91C18.6757 46.3149 18.5406 45.6075 18.6601 44.92Z" fill="#5161CF"/>
<path d="M50.8531 47.0405C51.9169 46.0596 52.0569 44.4811 51.1658 43.5148C50.2747 42.5485 48.69 42.5603 47.6263 43.5412C46.5625 44.5221 46.4225 46.1007 47.3136 47.067C48.2047 48.0333 49.7894 48.0215 50.8531 47.0405Z" fill="white"/>
<path d="M51.69 45.29C51.7428 44.6759 51.4742 44.0782 50.98 43.71C50.53 43.3976 49.9863 43.2493 49.44 43.29C48.3053 43.3451 47.3573 44.173 47.15 45.29C47.0798 45.8337 47.236 46.3825 47.582 46.8078C47.9279 47.2332 48.4333 47.4979 48.98 47.54C49.6226 47.5843 50.2592 47.3923 50.77 47C51.3068 46.5875 51.6416 45.9652 51.69 45.29ZM51.79 45.29C51.6983 45.9808 51.3903 46.6249 50.91 47.13C50.3987 47.652 49.7097 47.9626 48.98 48C48.2619 48.0262 47.5656 47.7506 47.06 47.24C46.5416 46.7096 46.2821 45.9785 46.35 45.24C46.4037 44.4353 46.7612 43.681 47.35 43.13C47.9405 42.5536 48.7348 42.2337 49.56 42.24C50.3143 42.2651 51.0087 42.6571 51.42 43.29C51.7842 43.8888 51.9159 44.6005 51.79 45.29Z" fill="#5161CF"/>
<path d="M23.54 16.53C21.8834 16.7758 20.214 16.9261 18.54 16.98C16.86 17.04 15.2 16.93 13.54 16.88C10.2067 16.7867 6.87337 16.67 3.54004 16.53V16.43C6.89004 16.28 10.24 16.17 13.59 16.08C15.26 16.02 16.94 15.91 18.59 15.98C20.2643 16.0286 21.934 16.1788 23.59 16.43L23.54 16.53Z" fill="#5161CF"/>
<path d="M19.98 21.82C18.5593 22.0727 17.1222 22.223 15.68 22.27C14.25 22.34 12.85 22.27 11.43 22.17C8.63998 22.08 5.81998 22 2.97998 21.82V21.72C5.83331 21.58 8.68331 21.4633 11.53 21.37C12.95 21.32 14.38 21.21 15.8 21.27C17.2122 21.3199 18.6191 21.4703 20.01 21.72L19.98 21.82Z" fill="#5161CF"/>
<path d="M14.5 27.12C13.5162 27.363 12.5118 27.5136 11.5 27.57C10.4989 27.5923 9.49737 27.5589 8.5 27.47C6.5 27.3833 4.5 27.2667 2.5 27.12V27C4.5 26.85 6.5 26.74 8.5 26.65C9.49716 26.5577 10.4989 26.5243 11.5 26.55C12.5131 26.5934 13.5187 26.7443 14.5 27V27.12Z" fill="#5161CF"/>
</g>
<defs>
<clipPath id="clip0_2_136">
<rect width="60" height="60" fill="white" transform="translate(0.97998)"/>
</clipPath>
</defs>
</svg>
