<svg width="1600" height="81" viewBox="0 0 1600 81" fill="none" xmlns="http://www.w3.org/2000/svg">
<path d="M0 1.38965H1600V-0.610352H0V1.38965ZM1600 79.3896H0V81.3896H1600V79.3896Z" fill="#EBEBEB" mask="url(#path-1-inside-1_2_1713)"/>
<path d="M195.839 36.2078H197.021L199.802 42.9994H199.897L202.678 36.2078H203.861V44.3896H202.934V38.1734H202.854L200.297 44.3896H199.402L196.845 38.1734H196.765V44.3896H195.839V36.2078ZM206.183 44.3896H205.144L208.148 36.2078H209.171L212.175 44.3896H211.137L208.692 37.5022H208.628L206.183 44.3896ZM206.566 41.1936H210.753V42.0725H206.566V41.1936ZM213.45 44.3896V36.2078H214.44V40.2668H214.536L218.212 36.2078H219.506L216.07 39.8992L219.506 44.3896H218.308L215.463 40.5864L214.44 41.7369V44.3896H213.45ZM220.788 44.3896V36.2078H225.726V37.0867H221.779V39.8513H225.471V40.7302H221.779V43.5107H225.79V44.3896H220.788ZM232.881 36.2078H233.872V41.6251C233.872 42.1844 233.74 42.6838 233.477 43.1232C233.216 43.56 232.847 43.9049 232.37 44.1579C231.893 44.4083 231.334 44.5335 230.692 44.5335C230.05 44.5335 229.491 44.4083 229.014 44.1579C228.538 43.9049 228.167 43.56 227.904 43.1232C227.643 42.6838 227.512 42.1844 227.512 41.6251V36.2078H228.503V41.5452C228.503 41.9447 228.591 42.3002 228.767 42.6119C228.942 42.9208 229.193 43.1645 229.518 43.343C229.845 43.5187 230.237 43.6066 230.692 43.6066C231.148 43.6066 231.539 43.5187 231.867 43.343C232.194 43.1645 232.445 42.9208 232.618 42.6119C232.794 42.3002 232.881 41.9447 232.881 41.5452V36.2078ZM235.851 44.3896V36.2078H238.615C239.257 36.2078 239.782 36.3237 240.189 36.5554C240.6 36.7844 240.903 37.0947 241.1 37.4862C241.297 37.8778 241.396 38.3145 241.396 38.7966C241.396 39.2787 241.297 39.7168 241.1 40.111C240.906 40.5051 240.605 40.8194 240.197 41.0538C239.79 41.2855 239.268 41.4014 238.631 41.4014H236.65V40.5225H238.599C239.039 40.5225 239.392 40.4466 239.658 40.2947C239.924 40.1429 240.117 39.9379 240.237 39.6795C240.36 39.4185 240.421 39.1242 240.421 38.7966C240.421 38.469 240.36 38.176 240.237 37.9177C240.117 37.6594 239.923 37.4569 239.654 37.3105C239.385 37.1613 239.028 37.0867 238.583 37.0867H236.842V44.3896H235.851ZM251.749 38.7646C251.661 38.4956 251.545 38.2546 251.401 38.0415C251.26 37.8258 251.091 37.642 250.894 37.4902C250.7 37.3384 250.479 37.2226 250.231 37.1427C249.983 37.0628 249.711 37.0228 249.416 37.0228C248.931 37.0228 248.49 37.148 248.094 37.3983C247.697 37.6487 247.381 38.0176 247.147 38.505C246.912 38.9924 246.795 39.5903 246.795 40.2987C246.795 41.0072 246.914 41.6051 247.151 42.0925C247.388 42.5799 247.709 42.9488 248.113 43.1991C248.518 43.4495 248.974 43.5747 249.48 43.5747C249.949 43.5747 250.361 43.4748 250.718 43.275C251.078 43.0726 251.357 42.7876 251.557 42.4201C251.76 42.0499 251.861 41.6144 251.861 41.1137L252.164 41.1776H249.704V40.2987H252.82V41.1776C252.82 41.8515 252.676 42.4374 252.388 42.9355C252.103 43.4335 251.709 43.8197 251.206 44.094C250.705 44.3657 250.13 44.5015 249.48 44.5015C248.755 44.5015 248.119 44.3311 247.57 43.9901C247.024 43.6492 246.598 43.1645 246.292 42.536C245.988 41.9074 245.836 41.1617 245.836 40.2987C245.836 39.6515 245.923 39.0696 246.096 38.5529C246.272 38.0336 246.519 37.5914 246.839 37.2266C247.159 36.8617 247.537 36.582 247.974 36.3876C248.41 36.1932 248.891 36.096 249.416 36.096C249.847 36.096 250.249 36.1612 250.622 36.2917C250.998 36.4196 251.332 36.602 251.625 36.839C251.921 37.0734 252.167 37.3544 252.364 37.682C252.561 38.0069 252.697 38.3678 252.772 38.7646H251.749ZM254.517 44.3896V36.2078H255.507V43.5107H259.311V44.3896H254.517ZM267.429 40.2987C267.429 41.1617 267.274 41.9074 266.962 42.536C266.65 43.1645 266.223 43.6492 265.68 43.9901C265.136 44.3311 264.516 44.5015 263.818 44.5015C263.12 44.5015 262.5 44.3311 261.956 43.9901C261.413 43.6492 260.985 43.1645 260.674 42.536C260.362 41.9074 260.206 41.1617 260.206 40.2987C260.206 39.4358 260.362 38.6901 260.674 38.0615C260.985 37.433 261.413 36.9482 261.956 36.6073C262.5 36.2664 263.12 36.096 263.818 36.096C264.516 36.096 265.136 36.2664 265.68 36.6073C266.223 36.9482 266.65 37.433 266.962 38.0615C267.274 38.6901 267.429 39.4358 267.429 40.2987ZM266.471 40.2987C266.471 39.5903 266.352 38.9924 266.115 38.505C265.881 38.0176 265.562 37.6487 265.16 37.3983C264.761 37.148 264.313 37.0228 263.818 37.0228C263.323 37.0228 262.874 37.148 262.472 37.3983C262.072 37.6487 261.754 38.0176 261.517 38.505C261.282 38.9924 261.165 39.5903 261.165 40.2987C261.165 41.0072 261.282 41.6051 261.517 42.0925C261.754 42.5799 262.072 42.9488 262.472 43.1991C262.874 43.4495 263.323 43.5747 263.818 43.5747C264.313 43.5747 264.761 43.4495 265.16 43.1991C265.562 42.9488 265.881 42.5799 266.115 42.0925C266.352 41.6051 266.471 41.0072 266.471 40.2987ZM269.095 44.3896V36.2078H271.956C272.526 36.2078 272.996 36.3064 273.366 36.5035C273.736 36.6979 274.012 36.9602 274.193 37.2905C274.374 37.6181 274.465 37.9816 274.465 38.3811C274.465 38.7327 274.402 39.023 274.277 39.252C274.154 39.4811 273.992 39.6622 273.79 39.7954C273.59 39.9285 273.373 40.0271 273.138 40.091V40.1709C273.389 40.1869 273.64 40.2748 273.893 40.4346C274.146 40.5944 274.358 40.8234 274.529 41.1217C274.699 41.42 274.784 41.7849 274.784 42.2164C274.784 42.6265 274.691 42.9954 274.505 43.323C274.318 43.6506 274.024 43.9102 273.622 44.102C273.22 44.2938 272.696 44.3896 272.052 44.3896H269.095ZM270.086 43.5107H272.052C272.699 43.5107 273.158 43.3856 273.43 43.1352C273.704 42.8822 273.841 42.5759 273.841 42.2164C273.841 41.9394 273.771 41.6837 273.63 41.4493C273.489 41.2123 273.287 41.0232 273.026 40.882C272.765 40.7382 272.457 40.6663 272.1 40.6663H270.086V43.5107ZM270.086 39.8034H271.924C272.222 39.8034 272.491 39.7448 272.731 39.6276C272.973 39.5104 273.165 39.3453 273.306 39.1322C273.45 38.9191 273.522 38.6688 273.522 38.3811C273.522 38.0216 273.397 37.7166 273.146 37.4663C272.896 37.2132 272.499 37.0867 271.956 37.0867H270.086V39.8034ZM276.748 44.3896H275.709L278.713 36.2078H279.736L282.74 44.3896H281.702L279.257 37.5022H279.193L276.748 44.3896ZM277.131 41.1936H281.318V42.0725H277.131V41.1936ZM284.015 44.3896V36.2078H285.006V43.5107H288.809V44.3896H284.015Z" fill="#212121"/>
<g clip-path="url(#clip0_2_1713)">
<g clip-path="url(#clip1_2_1713)">
<g clip-path="url(#clip2_2_1713)">
<path d="M316.782 44.0519C317.104 43.1852 317.28 42.2478 317.28 41.2693C317.28 40.2907 317.104 39.3534 316.782 38.4867L309.28 37.791L301.778 38.4867C301.456 39.3534 301.28 40.2907 301.28 41.2693C301.28 42.2478 301.456 43.1852 301.778 44.0519L309.28 44.7475L316.782 44.0519Z" fill="#F0F0F0"/>
<path d="M309.28 49.2692C312.72 49.2692 315.652 47.0982 316.782 44.0518H301.778C302.908 47.0982 305.84 49.2692 309.28 49.2692Z" fill="#D80027"/>
<path d="M309.28 33.2695C305.84 33.2695 302.908 35.4405 301.778 38.4869H316.782C315.652 35.4405 312.72 33.2695 309.28 33.2695Z" fill="#D80027"/>
</g>
</g>
</g>
<g clip-path="url(#clip3_2_1713)">
<g clip-path="url(#clip4_2_1713)">
<g clip-path="url(#clip5_2_1713)">
<path d="M349.28 41.2691C349.28 40.2905 349.104 39.3531 348.782 38.4865L341.28 38.1387L333.778 38.4865C333.456 39.3531 333.28 40.2905 333.28 41.2691C333.28 42.2477 333.456 43.1851 333.778 44.0517L341.28 44.3995L348.782 44.0517C349.104 43.1851 349.28 42.2477 349.28 41.2691Z" fill="#D80027"/>
<path d="M341.28 49.2692C344.72 49.2692 347.652 47.0982 348.782 44.0518H333.778C334.908 47.0982 337.84 49.2692 341.28 49.2692Z" fill="#6DA544"/>
<path d="M333.778 38.4869H348.782C347.652 35.4405 344.72 33.2695 341.28 33.2695C337.84 33.2695 334.908 35.4405 333.778 38.4869Z" fill="#338AF3"/>
<path d="M341.454 43.5308C340.205 43.5308 339.193 42.5186 339.193 41.2699C339.193 40.0213 340.205 39.0091 341.454 39.0091C341.843 39.0091 342.21 39.1075 342.529 39.2808C342.028 38.7901 341.342 38.4873 340.584 38.4873C339.048 38.4873 337.802 39.7331 337.802 41.2699C337.802 42.8067 339.048 44.0525 340.584 44.0525C341.342 44.0525 342.028 43.7496 342.529 43.259C342.21 43.4324 341.843 43.5308 341.454 43.5308Z" fill="#F0F0F0"/>
<path d="M343.193 39.7051L343.492 40.5473L344.3 40.1635L343.916 40.9708L344.758 41.2703L343.916 41.5698L344.3 42.3771L343.492 41.9933L343.193 42.8355L342.894 41.9933L342.086 42.3771L342.47 41.5698L341.628 41.2703L342.47 40.9708L342.086 40.1635L342.894 40.5473L343.193 39.7051Z" fill="#F0F0F0"/>
</g>
</g>
</g>
<g clip-path="url(#clip6_2_1713)">
<g clip-path="url(#clip7_2_1713)">
<g clip-path="url(#clip8_2_1713)">
<path d="M376.063 33.7671C375.196 33.4456 374.259 33.2695 373.28 33.2695C372.301 33.2695 371.364 33.4456 370.497 33.7671L369.802 41.2695L370.497 48.7719C371.364 49.0935 372.301 49.2695 373.28 49.2695C374.259 49.2695 375.196 49.0935 376.063 48.7719L376.758 41.2695L376.063 33.7671Z" fill="#FFDA44"/>
<path d="M381.28 41.27C381.28 37.8303 379.109 34.8979 376.063 33.7676V48.7724C379.109 47.642 381.28 44.7097 381.28 41.27Z" fill="#D80027"/>
<path d="M365.28 41.27C365.28 44.7097 367.451 47.642 370.497 48.7724V33.7676C367.451 34.8979 365.28 37.8303 365.28 41.27Z" fill="black"/>
</g>
</g>
</g>
<g clip-path="url(#clip9_2_1713)">
<g clip-path="url(#clip10_2_1713)">
<g clip-path="url(#clip11_2_1713)">
<path d="M413.28 41.2691C413.28 40.2905 413.104 39.3531 412.782 38.4865L405.28 38.1387L397.778 38.4865C397.456 39.3531 397.28 40.2905 397.28 41.2691C397.28 42.2477 397.456 43.1851 397.778 44.0517L405.28 44.3995L412.782 44.0517C413.104 43.1851 413.28 42.2477 413.28 41.2691Z" fill="#496E2D"/>
<path d="M405.28 49.2692C408.72 49.2692 411.652 47.0982 412.782 44.0518H397.778C398.908 47.0982 401.84 49.2692 405.28 49.2692Z" fill="#D80027"/>
<path d="M397.778 38.4869H412.782C411.652 35.4405 408.72 33.2695 405.28 33.2695C401.84 33.2695 398.908 35.4405 397.778 38.4869Z" fill="#F0F0F0"/>
</g>
</g>
</g>
<g clip-path="url(#clip12_2_1713)">
<g clip-path="url(#clip13_2_1713)">
<g clip-path="url(#clip14_2_1713)">
<path d="M445.28 41.2691C445.28 40.2905 445.104 39.3531 444.782 38.4865L437.28 38.1387L429.778 38.4865C429.456 39.3531 429.28 40.2905 429.28 41.2691C429.28 42.2477 429.456 43.1851 429.778 44.0517L437.28 44.3995L444.782 44.0517C445.104 43.1851 445.28 42.2477 445.28 41.2691Z" fill="#F0F0F0"/>
<path d="M437.28 49.2692C440.72 49.2692 443.652 47.0982 444.782 44.0518H429.778C430.908 47.0982 433.84 49.2692 437.28 49.2692Z" fill="#0052B4"/>
<path d="M429.778 38.4869H444.782C443.652 35.4405 440.72 33.2695 437.28 33.2695C433.84 33.2695 430.908 35.4405 429.778 38.4869Z" fill="#D80027"/>
<path d="M439.367 38.8352H437.976L438.208 37.096L439.135 36.4004L440.063 37.096V38.4874L439.367 38.8352Z" fill="#338AF3"/>
<path d="M435.193 38.8352H436.584L436.352 37.096L435.425 36.4004L434.497 37.096V38.4874L435.193 38.8352Z" fill="#338AF3"/>
<path d="M438.208 38.8352H436.352V37.096L437.28 36.4004L438.208 37.096V38.8352Z" fill="#0052B4"/>
<path d="M434.497 38.4873V42.3134C434.497 43.2244 434.937 44.0346 435.616 44.5425L436.103 44.4206L436.718 45.0388C436.899 45.0763 437.087 45.096 437.28 45.096C437.472 45.096 437.659 45.0765 437.839 45.0395L438.541 44.4554L438.944 44.5414C439.622 44.0335 440.063 43.2241 440.063 42.3134V38.4873H434.497Z" fill="#F0F0F0"/>
<path d="M435.61 38.4873H434.497V39.6003H435.61V38.4873Z" fill="#D80027"/>
<path d="M437.837 38.4873H436.723V39.6003H437.837V38.4873Z" fill="#D80027"/>
<path d="M440.063 38.4873H438.95V39.6003H440.063V38.4873Z" fill="#D80027"/>
<path d="M436.723 39.6006H435.61V40.7136H436.723V39.6006Z" fill="#D80027"/>
<path d="M438.95 39.6006H437.837V40.7136H438.95V39.6006Z" fill="#D80027"/>
<path d="M435.61 40.7129H434.497V41.8259H435.61V40.7129Z" fill="#D80027"/>
<path d="M436.723 41.8262H435.61V42.9392H436.723V41.8262Z" fill="#D80027"/>
<path d="M437.837 40.7129H436.723V41.8259H437.837V40.7129Z" fill="#D80027"/>
<path d="M440.063 40.7129H438.95V41.8259H440.063V40.7129Z" fill="#D80027"/>
<path d="M438.95 41.8262H437.837V42.9392H438.95V41.8262Z" fill="#D80027"/>
<path d="M437.837 42.9395H436.723V44.0525H437.837V42.9395Z" fill="#D80027"/>
<path d="M435.61 42.9395H434.569C434.665 43.3532 434.852 43.7318 435.11 44.0525H435.61V42.9395Z" fill="#D80027"/>
<path d="M438.95 44.0525H439.45C439.708 43.7318 439.895 43.3532 439.991 42.9395H438.95V44.0525Z" fill="#D80027"/>
<path d="M435.61 44.0527V44.5384C435.934 44.782 436.312 44.9566 436.723 45.0405V44.0527H435.61Z" fill="#D80027"/>
<path d="M437.837 44.0527V45.0405C438.248 44.9567 438.626 44.782 438.95 44.5384V44.0527H437.837Z" fill="#D80027"/>
</g>
</g>
</g>
<g clip-path="url(#clip15_2_1713)">
<g clip-path="url(#clip16_2_1713)">
<g clip-path="url(#clip17_2_1713)">
<path d="M469.28 49.2695C473.698 49.2695 477.28 45.6878 477.28 41.2695C477.28 36.8513 473.698 33.2695 469.28 33.2695C464.862 33.2695 461.28 36.8513 461.28 41.2695C461.28 45.6878 464.862 49.2695 469.28 49.2695Z" fill="#FCFCFC"/>
<path d="M473.802 40.2256C473.558 40.2256 473.257 40.2256 472.758 40.2256C472.758 42.1466 471.201 43.7038 469.28 43.7038C467.359 43.7038 465.802 42.1466 465.802 40.2256C465.466 40.2256 465.094 40.2256 464.758 40.2256C464.758 42.2948 466.148 44.0394 468.045 44.5767C467.837 44.9718 467.869 45.4693 468.166 45.8401C468.556 45.5273 468.96 45.2035 469.303 44.9289C469.646 45.2035 470.05 45.5273 470.44 45.8401C470.74 45.4656 470.77 44.9618 470.555 44.5648C472.431 44.0143 473.802 42.2801 473.802 40.2256Z" fill="#6DA544"/>
<path d="M466.497 39.8781C466.497 39.8781 466.497 41.6173 468.237 41.6173L468.584 41.9651H469.28C469.28 41.9651 469.628 40.9216 470.323 40.9216C470.323 40.9216 470.323 40.226 471.019 40.226C471.715 40.226 472.063 40.226 472.063 40.226C472.063 40.226 471.715 38.8346 473.454 37.7912L472.758 37.4434C472.758 37.4434 470.323 39.1825 468.584 38.8347V39.5303H467.889L467.541 39.1825L466.497 39.8781Z" fill="#FFDA44"/>
</g>
</g>
</g>
<g clip-path="url(#clip18_2_1713)">
<g clip-path="url(#clip19_2_1713)">
<g clip-path="url(#clip20_2_1713)">
<path d="M501.28 49.2695C505.698 49.2695 509.28 45.6878 509.28 41.2695C509.28 36.8513 505.698 33.2695 501.28 33.2695C496.862 33.2695 493.28 36.8513 493.28 41.2695C493.28 45.6878 496.862 49.2695 501.28 49.2695Z" fill="#F0F0F0"/>
<path d="M500.584 41.2695C500.584 41.2695 495.628 46.9275 495.623 46.9264C497.071 48.3741 499.071 49.2695 501.28 49.2695C505.698 49.2695 509.28 45.6878 509.28 41.2695H500.584Z" fill="#D80027"/>
<path d="M495.623 35.6123C492.499 38.7365 492.499 43.8018 495.623 46.9261C496.914 45.635 498.156 44.3934 501.28 41.2692L495.623 35.6123Z" fill="#0052B4"/>
</g>
</g>
</g>
<g clip-path="url(#clip21_2_1713)">
<g clip-path="url(#clip22_2_1713)">
<g clip-path="url(#clip23_2_1713)">
<path d="M533.28 49.2695C537.698 49.2695 541.28 45.6878 541.28 41.2695C541.28 36.8513 537.698 33.2695 533.28 33.2695C528.862 33.2695 525.28 36.8513 525.28 41.2695C525.28 45.6878 528.862 49.2695 533.28 49.2695Z" fill="#F0F0F0"/>
<path d="M531.541 40.2261H541.212C540.701 36.3008 537.345 33.2695 533.28 33.2695C532.683 33.2695 532.101 33.3356 531.541 33.4597L531.541 40.2261Z" fill="#D80027"/>
<path d="M529.454 40.226V34.2422C527.257 35.4408 525.685 37.6392 525.348 40.226L529.454 40.226Z" fill="#D80027"/>
<path d="M529.454 42.3135H525.348C525.685 44.9003 527.257 47.0987 529.454 48.2973L529.454 42.3135Z" fill="#D80027"/>
<path d="M531.541 42.3135V49.0799C532.101 49.204 532.683 49.27 533.28 49.27C537.345 49.27 540.701 46.2387 541.212 42.3135H531.541V42.3135Z" fill="#D80027"/>
</g>
</g>
</g>
<g clip-path="url(#clip24_2_1713)">
<g clip-path="url(#clip25_2_1713)">
<g clip-path="url(#clip26_2_1713)">
<path d="M557.28 41.2691C557.28 42.2477 557.456 43.185 557.778 44.0517L565.28 44.3995L572.782 44.0517C573.104 43.185 573.28 42.2477 573.28 41.2691C573.28 40.2905 573.104 39.3532 572.782 38.4865L565.28 38.1387L557.778 38.4865C557.456 39.3532 557.28 40.2905 557.28 41.2691Z" fill="black"/>
<path d="M565.28 33.2695C561.84 33.2695 558.908 35.4405 557.778 38.4869H572.782C571.652 35.4405 568.72 33.2695 565.28 33.2695Z" fill="#0052B4"/>
<path d="M572.782 44.0518H557.778C558.908 47.0981 561.84 49.2692 565.28 49.2692C568.72 49.2692 571.652 47.0981 572.782 44.0518Z" fill="#F0F0F0"/>
</g>
</g>
</g>
<g clip-path="url(#clip27_2_1713)">
<g clip-path="url(#clip28_2_1713)">
<g clip-path="url(#clip29_2_1713)">
<path d="M597.28 49.2695C601.698 49.2695 605.28 45.6878 605.28 41.2695C605.28 36.8513 601.698 33.2695 597.28 33.2695C592.862 33.2695 589.28 36.8513 589.28 41.2695C589.28 45.6878 592.862 49.2695 597.28 49.2695Z" fill="#F0F0F0"/>
<path d="M605.28 41.27C605.28 37.8303 603.109 34.8979 600.063 33.7676V48.7724C603.109 47.642 605.28 44.7097 605.28 41.27Z" fill="#D80027"/>
<path d="M589.28 41.27C589.28 44.7097 591.451 47.642 594.497 48.7724V33.7676C591.451 34.8979 589.28 37.8303 589.28 41.27Z" fill="#0052B4"/>
</g>
</g>
</g>
<g clip-path="url(#clip30_2_1713)">
<g clip-path="url(#clip31_2_1713)">
<g clip-path="url(#clip32_2_1713)">
<path d="M621.778 44.0521C622.908 47.0984 625.84 49.2695 629.28 49.2695C632.72 49.2695 635.652 47.0984 636.782 44.0521L629.28 43.3564L621.778 44.0521Z" fill="#FFDA44"/>
<path d="M629.28 33.2695C625.84 33.2695 622.908 35.4405 621.778 38.4869L629.28 39.1826L636.782 38.4869C635.652 35.4405 632.72 33.2695 629.28 33.2695Z" fill="black"/>
<path d="M621.778 38.4873C621.456 39.354 621.28 40.2913 621.28 41.2699C621.28 42.2485 621.456 43.1858 621.778 44.0525H636.782C637.104 43.1858 637.28 42.2485 637.28 41.2699C637.28 40.2913 637.104 39.354 636.782 38.4873H621.778Z" fill="#D80027"/>
</g>
</g>
</g>
<g clip-path="url(#clip33_2_1713)">
<g clip-path="url(#clip34_2_1713)">
<g clip-path="url(#clip35_2_1713)">
<path d="M661.28 49.2695C665.698 49.2695 669.28 45.6878 669.28 41.2695C669.28 36.8513 665.698 33.2695 661.28 33.2695C656.862 33.2695 653.28 36.8513 653.28 41.2695C653.28 45.6878 656.862 49.2695 661.28 49.2695Z" fill="#F0F0F0"/>
<path d="M661.28 39.1827H669.004C668.804 38.4385 668.499 37.7372 668.106 37.0957H661.28V39.1827Z" fill="#338AF3"/>
<path d="M656.3 47.5303H666.26C666.99 46.9488 667.616 46.2425 668.106 45.4434H654.454C654.944 46.2425 655.57 46.9488 656.3 47.5303Z" fill="#338AF3"/>
<path d="M656.063 35.2051C655.434 35.7467 654.89 36.3845 654.454 37.0956H656.063V35.2051Z" fill="#338AF3"/>
<path d="M661.28 41.2696C661.28 40.4547 661.28 39.7727 661.28 39.1826H658.15V41.2696H656.063V39.1826H653.556C653.376 39.8481 653.28 40.5475 653.28 41.2696C653.28 41.9917 653.376 42.6911 653.556 43.3566H669.004C669.184 42.6911 669.28 41.9917 669.28 41.2696H661.28Z" fill="#338AF3"/>
<path d="M661.28 33.2695C660.169 33.2695 659.111 33.4962 658.15 33.9054V37.0956H661.28C661.28 36.3671 661.28 35.7475 661.28 35.0087H666.26C664.893 33.9203 663.163 33.2695 661.28 33.2695Z" fill="#338AF3"/>
</g>
</g>
</g>
<g clip-path="url(#clip36_2_1713)">
<g clip-path="url(#clip37_2_1713)">
<g clip-path="url(#clip38_2_1713)">
<path d="M685.778 38.4867C685.456 39.3534 685.28 40.2907 685.28 41.2693C685.28 42.2478 685.456 43.1852 685.778 44.0519L693.28 44.7475L700.782 44.0519C701.104 43.1852 701.28 42.2478 701.28 41.2693C701.28 40.2907 701.104 39.3534 700.782 38.4867L693.28 37.791L685.778 38.4867Z" fill="#F0F0F0"/>
<path d="M693.28 33.2695C689.84 33.2695 686.908 35.4405 685.778 38.4869H700.783C699.652 35.4405 696.72 33.2695 693.28 33.2695Z" fill="#D80027"/>
<path d="M693.28 49.2692C696.72 49.2692 699.652 47.0982 700.782 44.0518H685.778C686.908 47.0982 689.84 49.2692 693.28 49.2692Z" fill="#6DA544"/>
</g>
</g>
</g>
<g clip-path="url(#clip39_2_1713)">
<g clip-path="url(#clip40_2_1713)">
<g clip-path="url(#clip41_2_1713)">
<path d="M725.28 49.2695C729.698 49.2695 733.28 45.6878 733.28 41.2695C733.28 36.8513 729.698 33.2695 725.28 33.2695C720.862 33.2695 717.28 36.8513 717.28 41.2695C717.28 45.6878 720.862 49.2695 725.28 49.2695Z" fill="#F0F0F0"/>
<path d="M733.28 41.27C733.28 37.8303 731.109 34.8979 728.063 33.7676V48.7724C731.109 47.642 733.28 44.7097 733.28 41.27Z" fill="#FF9811"/>
<path d="M717.28 41.27C717.28 44.7097 719.451 47.642 722.497 48.7724V33.7676C719.451 34.8979 717.28 37.8303 717.28 41.27Z" fill="#6DA544"/>
</g>
</g>
</g>
<g clip-path="url(#clip42_2_1713)">
<g clip-path="url(#clip43_2_1713)">
<g clip-path="url(#clip44_2_1713)">
<path d="M757.28 49.2695C761.698 49.2695 765.28 45.6878 765.28 41.2695C765.28 36.8513 761.698 33.2695 757.28 33.2695C752.862 33.2695 749.28 36.8513 749.28 41.2695C749.28 45.6878 752.862 49.2695 757.28 49.2695Z" fill="#F0F0F0"/>
<path d="M760.292 39.5301H758.284L757.28 37.791L756.276 39.5301H754.268L755.272 41.2693L754.268 43.0084H756.276L757.28 44.7475L758.284 43.0084H760.292L759.288 41.2693L760.292 39.5301ZM758.514 41.2693L757.897 42.3376H756.663L756.046 41.2693L756.663 40.2009H757.897L758.514 41.2693ZM757.28 39.1325L757.51 39.5301H757.051L757.28 39.1325ZM755.43 40.2009H755.889L755.659 40.5985L755.43 40.2009ZM755.43 42.3376L755.659 41.94L755.889 42.3376H755.43ZM757.28 43.406L757.05 43.0084H757.51L757.28 43.406ZM759.13 42.3376H758.671L758.901 41.94L759.13 42.3376ZM758.671 40.2009H759.13L758.901 40.5985L758.671 40.2009Z" fill="#0052B4"/>
<path d="M762.26 35.0088H752.3C751.57 35.5903 750.944 36.2966 750.454 37.0958H764.106C763.616 36.2966 762.99 35.5903 762.26 35.0088Z" fill="#0052B4"/>
<path d="M752.3 47.5303H762.26C762.99 46.9488 763.616 46.2425 764.106 45.4434H750.454C750.944 46.2425 751.57 46.9488 752.3 47.5303Z" fill="#0052B4"/>
</g>
</g>
</g>
<g clip-path="url(#clip45_2_1713)">
<g clip-path="url(#clip46_2_1713)">
<g clip-path="url(#clip47_2_1713)">
<path d="M789.28 49.2695C793.698 49.2695 797.28 45.6878 797.28 41.2695C797.28 36.8513 793.698 33.2695 789.28 33.2695C784.862 33.2695 781.28 36.8513 781.28 41.2695C781.28 45.6878 784.862 49.2695 789.28 49.2695Z" fill="#F0F0F0"/>
<path d="M797.28 41.27C797.28 37.8303 795.109 34.8979 792.063 33.7676V48.7724C795.109 47.642 797.28 44.7097 797.28 41.27Z" fill="#D80027"/>
<path d="M781.28 41.27C781.28 44.7097 783.451 47.642 786.497 48.7724V33.7676C783.451 34.8979 781.28 37.8303 781.28 41.27Z" fill="#6DA544"/>
</g>
</g>
</g>
<g clip-path="url(#clip48_2_1713)">
<g clip-path="url(#clip49_2_1713)">
<g clip-path="url(#clip50_2_1713)">
<path d="M821.28 49.2695C825.698 49.2695 829.28 45.6878 829.28 41.2695C829.28 36.8513 825.698 33.2695 821.28 33.2695C816.862 33.2695 813.28 36.8513 813.28 41.2695C813.28 45.6878 816.862 49.2695 821.28 49.2695Z" fill="#F0F0F0"/>
<path d="M821.28 44.7475C823.201 44.7475 824.758 43.1902 824.758 41.2693C824.758 39.3483 823.201 37.791 821.28 37.791C819.359 37.791 817.802 39.3483 817.802 41.2693C817.802 43.1902 819.359 44.7475 821.28 44.7475Z" fill="#D80027"/>
</g>
</g>
</g>
<g clip-path="url(#clip51_2_1713)">
<g clip-path="url(#clip52_2_1713)">
<g clip-path="url(#clip53_2_1713)">
<path d="M853.28 49.2695C857.698 49.2695 861.28 45.6878 861.28 41.2695C861.28 36.8513 857.698 33.2695 853.28 33.2695C848.862 33.2695 845.28 36.8513 845.28 41.2695C845.28 45.6878 848.862 49.2695 853.28 49.2695Z" fill="#338AF3"/>
<path d="M857.802 41.3564H848.758C848.758 41.9808 849.302 42.4869 849.926 42.4869H849.889C849.889 43.1112 850.395 43.6173 851.019 43.6173C851.019 44.2417 851.525 44.7478 852.15 44.7478H854.41C855.035 44.7478 855.541 44.2417 855.541 43.6173C856.165 43.6173 856.671 43.1112 856.671 42.4869H856.634C857.258 42.4869 857.802 41.9808 857.802 41.3564Z" fill="#FFDA44"/>
<path d="M856.41 39.8779C856.41 41.6068 855.009 43.0084 853.28 43.0084C851.551 43.0084 850.15 41.6068 850.15 39.8779" fill="#338AF3"/>
<path d="M855.671 39.8781L854.694 40.3377L855.214 41.284L854.153 41.081L854.019 42.1527L853.28 41.3645L852.541 42.1527L852.407 41.081L851.346 41.2839L851.866 40.3377L850.889 39.8781L851.866 39.4185L851.346 38.4723L852.407 38.6753L852.541 37.6035L853.28 38.3918L854.019 37.6035L854.153 38.6753L855.214 38.4723L854.694 39.4186L855.671 39.8781Z" fill="#FFDA44"/>
</g>
</g>
</g>
<g clip-path="url(#clip54_2_1713)">
<g clip-path="url(#clip55_2_1713)">
<g clip-path="url(#clip56_2_1713)">
<path d="M885.28 49.2695C889.698 49.2695 893.28 45.6878 893.28 41.2695C893.28 36.8513 889.698 33.2695 885.28 33.2695C880.862 33.2695 877.28 36.8513 877.28 41.2695C877.28 45.6878 880.862 49.2695 885.28 49.2695Z" fill="#F0F0F0"/>
<path d="M885.28 33.2695C881.584 33.2695 878.474 35.7764 877.556 39.1826H893.004C892.086 35.7764 888.976 33.2695 885.28 33.2695Z" fill="#A2001D"/>
<path d="M885.28 49.2695C888.976 49.2695 892.086 46.7626 893.004 43.3564H877.556C878.474 46.7625 881.584 49.2695 885.28 49.2695Z" fill="#A2001D"/>
</g>
</g>
</g>
<g clip-path="url(#clip57_2_1713)">
<g clip-path="url(#clip58_2_1713)">
<g clip-path="url(#clip59_2_1713)">
<path d="M924.782 44.0519C925.104 43.1852 925.28 42.2478 925.28 41.2693C925.28 40.2907 925.104 39.3533 924.782 38.4867L917.28 37.791L909.778 38.4867C909.456 39.3533 909.28 40.2907 909.28 41.2693C909.28 42.2478 909.456 43.1852 909.778 44.0519L917.28 44.7475L924.782 44.0519Z" fill="#6DA544"/>
<path d="M924.782 38.4869C923.652 35.4405 920.72 33.2695 917.28 33.2695C913.84 33.2695 910.908 35.4405 909.778 38.4869H924.782Z" fill="#FFDA44"/>
<path d="M917.28 49.2692C920.72 49.2692 923.652 47.0982 924.782 44.0518H909.778C910.908 47.0982 913.84 49.2692 917.28 49.2692Z" fill="#D80027"/>
</g>
</g>
</g>
<g clip-path="url(#clip60_2_1713)">
<g clip-path="url(#clip61_2_1713)">
<g clip-path="url(#clip62_2_1713)">
<path d="M949.28 49.2695C953.698 49.2695 957.28 45.6878 957.28 41.2695C957.28 36.8513 953.698 33.2695 949.28 33.2695C944.862 33.2695 941.28 36.8513 941.28 41.2695C941.28 45.6878 944.862 49.2695 949.28 49.2695Z" fill="#F0F0F0"/>
<path d="M949.28 33.2695C945.84 33.2695 942.908 35.4405 941.778 38.4869H956.782C955.652 35.4405 952.72 33.2695 949.28 33.2695Z" fill="#D80027"/>
<path d="M949.28 49.2692C952.72 49.2692 955.652 47.0982 956.782 44.0518H941.778C942.908 47.0982 945.84 49.2692 949.28 49.2692Z" fill="#338AF3"/>
</g>
</g>
</g>
<g clip-path="url(#clip63_2_1713)">
<g clip-path="url(#clip64_2_1713)">
<g clip-path="url(#clip65_2_1713)">
<path d="M984.758 34.0633C983.707 33.5548 982.527 33.2695 981.28 33.2695C980.033 33.2695 978.854 33.5548 977.802 34.0633L977.106 41.2695L977.802 48.4757C978.854 48.9843 980.033 49.2695 981.28 49.2695C982.527 49.2695 983.707 48.9843 984.758 48.4757L985.454 41.2695L984.758 34.0633Z" fill="#FFDA44"/>
<path d="M977.802 34.0635C975.126 35.3574 973.28 38.0977 973.28 41.2694C973.28 44.441 975.126 47.1813 977.802 48.4753V34.0635Z" fill="#0052B4"/>
<path d="M984.758 34.0635V48.4753C987.434 47.1813 989.28 44.441 989.28 41.2694C989.28 38.0977 987.434 35.3574 984.758 34.0635Z" fill="#D80027"/>
<path d="M984.063 39.5639H982.15C982.15 39.0836 981.76 38.6943 981.28 38.6943C980.8 38.6943 980.41 39.0836 980.41 39.5639H978.497C978.497 40.0367 978.909 40.42 979.382 40.42H979.354C979.354 40.8929 979.737 41.2762 980.21 41.2762C980.21 41.6949 980.51 42.0428 980.908 42.1171L980.233 43.6403C980.556 43.7717 980.91 43.8448 981.28 43.8448C981.65 43.8448 982.004 43.7717 982.327 43.6403L981.652 42.1171C982.05 42.0428 982.35 41.6949 982.35 41.2762C982.823 41.2762 983.206 40.8929 983.206 40.42H983.178C983.651 40.42 984.063 40.0367 984.063 39.5639Z" fill="#FF9811"/>
<path d="M981.28 40.748L980.15 41.2698V42.3133L981.28 43.0089L982.41 42.3133V41.2698L981.28 40.748Z" fill="#0052B4"/>
<path d="M982.41 40.2256H980.15V41.2691H982.41V40.2256Z" fill="#D80027"/>
</g>
</g>
</g>
<g clip-path="url(#clip66_2_1713)">
<g clip-path="url(#clip67_2_1713)">
<g clip-path="url(#clip68_2_1713)">
<path d="M1013.28 49.2695C1017.7 49.2695 1021.28 45.6878 1021.28 41.2695C1021.28 36.8513 1017.7 33.2695 1013.28 33.2695C1008.86 33.2695 1005.28 36.8513 1005.28 41.2695C1005.28 45.6878 1008.86 49.2695 1013.28 49.2695Z" fill="#F0F0F0"/>
<path d="M1013.28 33.2695C1009.84 33.2695 1006.91 35.4405 1005.78 38.4869H1020.78C1019.65 35.4405 1016.72 33.2695 1013.28 33.2695Z" fill="#A2001D"/>
<path d="M1013.28 49.2692C1016.72 49.2692 1019.65 47.0982 1020.78 44.0518H1005.78C1006.91 47.0982 1009.84 49.2692 1013.28 49.2692Z" fill="#0052B4"/>
</g>
</g>
</g>
<g clip-path="url(#clip69_2_1713)">
<g clip-path="url(#clip70_2_1713)">
<g clip-path="url(#clip71_2_1713)">
<path d="M1045.28 49.2695C1049.7 49.2695 1053.28 45.6878 1053.28 41.2695C1053.28 36.8513 1049.7 33.2695 1045.28 33.2695C1040.86 33.2695 1037.28 36.8513 1037.28 41.2695C1037.28 45.6878 1040.86 49.2695 1045.28 49.2695Z" fill="#F0F0F0"/>
<path d="M1053.28 41.2695C1053.28 45.6878 1049.7 49.2695 1045.28 49.2695C1040.86 49.2695 1037.28 45.6878 1037.28 41.2695" fill="#D80027"/>
</g>
</g>
</g>
<g clip-path="url(#clip72_2_1713)">
<g clip-path="url(#clip73_2_1713)">
<g clip-path="url(#clip74_2_1713)">
<path d="M1069.28 41.27C1069.28 44.7097 1071.45 47.642 1074.5 48.7724L1075.19 41.27L1074.5 33.7676C1071.45 34.898 1069.28 37.8303 1069.28 41.27Z" fill="#6DA544"/>
<path d="M1085.28 41.2695C1085.28 36.8513 1081.7 33.2695 1077.28 33.2695C1076.3 33.2695 1075.36 33.4456 1074.5 33.7671V48.7719C1075.36 49.0935 1076.3 49.2695 1077.28 49.2695C1081.7 49.2695 1085.28 45.6878 1085.28 41.2695Z" fill="#D80027"/>
<path d="M1074.5 44.0525C1076.03 44.0525 1077.28 42.8067 1077.28 41.2699C1077.28 39.7331 1076.03 38.4873 1074.5 38.4873C1072.96 38.4873 1071.71 39.7331 1071.71 41.2699C1071.71 42.8067 1072.96 44.0525 1074.5 44.0525Z" fill="#FFDA44"/>
<path d="M1072.93 39.8779V41.6171C1072.93 42.4815 1073.63 43.1823 1074.5 43.1823C1075.36 43.1823 1076.06 42.4815 1076.06 41.6171V39.8779H1072.93Z" fill="#D80027"/>
<path d="M1074.5 42.1392C1074.21 42.1392 1073.98 41.9052 1073.98 41.6175V40.9219H1075.02V41.6175C1075.02 41.9052 1074.79 42.1392 1074.5 42.1392Z" fill="#F0F0F0"/>
</g>
</g>
</g>
<g clip-path="url(#clip75_2_1713)">
<g clip-path="url(#clip76_2_1713)">
<g clip-path="url(#clip77_2_1713)">
<path d="M1112.06 33.7671C1111.2 33.4456 1110.26 33.2695 1109.28 33.2695C1108.3 33.2695 1107.36 33.4456 1106.5 33.7671L1105.8 41.2695L1106.5 48.7719C1107.36 49.0935 1108.3 49.2695 1109.28 49.2695C1110.26 49.2695 1111.2 49.0935 1112.06 48.7719L1112.76 41.2695L1112.06 33.7671Z" fill="#FFDA44"/>
<path d="M1117.28 41.27C1117.28 37.8303 1115.11 34.8979 1112.06 33.7676V48.7725C1115.11 47.642 1117.28 44.7097 1117.28 41.27Z" fill="#D80027"/>
<path d="M1101.28 41.2699C1101.28 44.7097 1103.45 47.642 1106.5 48.7724L1106.5 33.7676C1103.45 34.8979 1101.28 37.8302 1101.28 41.2699Z" fill="#0052B4"/>
</g>
</g>
</g>
<g clip-path="url(#clip78_2_1713)">
<g clip-path="url(#clip79_2_1713)">
<g clip-path="url(#clip80_2_1713)">
<path d="M1141.28 49.2695C1145.7 49.2695 1149.28 45.6878 1149.28 41.2695C1149.28 36.8513 1145.7 33.2695 1141.28 33.2695C1136.86 33.2695 1133.28 36.8513 1133.28 41.2695C1133.28 45.6878 1136.86 49.2695 1141.28 49.2695Z" fill="#6DA544"/>
<path d="M1137.8 42.835C1137.8 43.4112 1138.27 43.8784 1138.85 43.8784H1141.98C1141.98 44.3587 1142.37 44.748 1142.85 44.748H1143.89C1144.37 44.748 1144.76 44.3587 1144.76 43.8784V42.835H1137.8Z" fill="#F0F0F0"/>
<path d="M1144.85 37.791V40.2258C1144.85 40.6094 1144.53 40.9215 1144.15 40.9215V41.9649C1145.11 41.9649 1145.89 41.1847 1145.89 40.2258V37.791H1144.85Z" fill="#F0F0F0"/>
<path d="M1137.37 40.2258C1137.37 40.6094 1137.05 40.9215 1136.67 40.9215V41.9649C1137.63 41.9649 1138.41 41.1847 1138.41 40.2258V37.791H1137.37V40.2258Z" fill="#F0F0F0"/>
<path d="M1144.32 37.791H1143.28V40.2258H1144.32V37.791Z" fill="#F0F0F0"/>
<path d="M1141.71 39.1823C1141.71 39.2782 1141.64 39.3562 1141.54 39.3562C1141.45 39.3562 1141.37 39.2782 1141.37 39.1823V37.791H1140.32V39.1823C1140.32 39.2782 1140.25 39.3562 1140.15 39.3562C1140.05 39.3562 1139.98 39.2782 1139.98 39.1823V37.791H1138.93V39.1823C1138.93 39.8536 1139.48 40.3997 1140.15 40.3997C1140.41 40.3997 1140.65 40.3185 1140.85 40.1805C1141.04 40.3185 1141.28 40.3997 1141.54 40.3997C1141.59 40.3997 1141.64 40.3961 1141.69 40.3897C1141.62 40.6943 1141.35 40.9215 1141.02 40.9215V41.9649C1141.98 41.9649 1142.76 41.1847 1142.76 40.2258V39.1823V37.791H1141.71V39.1823H1141.71Z" fill="#F0F0F0"/>
<path d="M1140.5 40.9219H1138.93V41.9653H1140.5V40.9219Z" fill="#F0F0F0"/>
</g>
</g>
</g>
<g clip-path="url(#clip81_2_1713)">
<g clip-path="url(#clip82_2_1713)">
<g clip-path="url(#clip83_2_1713)">
<path d="M1173.28 49.2695C1177.7 49.2695 1181.28 45.6878 1181.28 41.2695C1181.28 36.8513 1177.7 33.2695 1173.28 33.2695C1168.86 33.2695 1165.28 36.8513 1165.28 41.2695C1165.28 45.6878 1168.86 49.2695 1173.28 49.2695Z" fill="#F0F0F0"/>
<path d="M1173.28 49.2699C1177.7 49.2699 1181.28 45.6881 1181.28 41.2699C1181.28 40.2913 1181.1 39.3539 1180.78 38.4873H1165.78C1165.46 39.3539 1165.28 40.2913 1165.28 41.2699C1165.28 45.6881 1168.86 49.2699 1173.28 49.2699Z" fill="#0052B4"/>
<path d="M1173.28 49.2692C1176.72 49.2692 1179.65 47.0982 1180.78 44.0518H1165.78C1166.91 47.0982 1169.84 49.2692 1173.28 49.2692Z" fill="#D80027"/>
<path d="M1167.35 37.791V41.7818C1167.35 44.052 1170.31 44.7475 1170.31 44.7475C1170.31 44.7475 1173.28 44.052 1173.28 41.7818V37.791H1167.35Z" fill="#F0F0F0"/>
<path d="M1168.04 37.791V41.7818C1168.04 42.0483 1168.1 42.3 1168.22 42.536C1169.38 42.536 1171.12 42.536 1172.41 42.536C1172.53 42.3 1172.58 42.0483 1172.58 41.7818V37.791H1168.04Z" fill="#D80027"/>
<path d="M1171.71 40.5742H1170.66V39.8786H1171.36V39.1829H1170.66V38.4873H1169.97V39.1829H1169.27V39.8786H1169.97V40.5742H1168.92V41.2699H1169.97V41.9656H1170.66V41.2699H1171.71V40.5742Z" fill="#F0F0F0"/>
<path d="M1169.17 43.5072C1169.62 43.7889 1170.08 43.9524 1170.31 44.0252C1170.55 43.9525 1171.01 43.7889 1171.46 43.5072C1171.91 43.223 1172.23 42.8981 1172.41 42.5361C1172.21 42.3957 1171.97 42.3128 1171.71 42.3128C1171.61 42.3128 1171.52 42.3241 1171.43 42.3448C1171.24 41.9165 1170.81 41.6172 1170.31 41.6172C1169.82 41.6172 1169.39 41.9165 1169.2 42.3448C1169.11 42.3241 1169.02 42.3128 1168.92 42.3128C1168.66 42.3128 1168.42 42.3957 1168.22 42.5361C1168.4 42.8981 1168.72 43.223 1169.17 43.5072Z" fill="#0052B4"/>
</g>
</g>
</g>
<g clip-path="url(#clip84_2_1713)">
<g clip-path="url(#clip85_2_1713)">
<g clip-path="url(#clip86_2_1713)">
<path d="M1197.28 41.2693C1197.28 42.2478 1197.46 43.1852 1197.78 44.0519L1205.28 44.7475L1212.78 44.0519C1213.1 43.1852 1213.28 42.2478 1213.28 41.2693C1213.28 40.2907 1213.1 39.3533 1212.78 38.4867L1205.28 37.791L1197.78 38.4867C1197.46 39.3533 1197.28 40.2907 1197.28 41.2693Z" fill="#FFDA44"/>
<path d="M1212.78 38.4869C1211.65 35.4406 1208.72 33.2695 1205.28 33.2695C1201.84 33.2695 1198.91 35.4406 1197.78 38.4869H1212.78Z" fill="#D80027"/>
<path d="M1197.78 44.0518C1198.91 47.0981 1201.84 49.2692 1205.28 49.2692C1208.72 49.2692 1211.65 47.0981 1212.78 44.0518H1197.78Z" fill="#D80027"/>
</g>
</g>
</g>
<g clip-path="url(#clip87_2_1713)">
<g clip-path="url(#clip88_2_1713)">
<g clip-path="url(#clip89_2_1713)">
<path d="M1237.28 49.2695C1241.7 49.2695 1245.28 45.6878 1245.28 41.2695C1245.28 36.8513 1241.7 33.2695 1237.28 33.2695C1232.86 33.2695 1229.28 36.8513 1229.28 41.2695C1229.28 45.6878 1232.86 49.2695 1237.28 49.2695Z" fill="#FFDA44"/>
<path d="M1235.54 40.2261H1245.21C1244.7 36.3008 1241.34 33.2695 1237.28 33.2695C1236.68 33.2695 1236.1 33.3356 1235.54 33.4597L1235.54 40.2261Z" fill="#0052B4"/>
<path d="M1233.45 40.226V34.2422C1231.26 35.4408 1229.68 37.6392 1229.35 40.226L1233.45 40.226Z" fill="#0052B4"/>
<path d="M1233.45 42.3135H1229.35C1229.68 44.9003 1231.26 47.0987 1233.45 48.2973L1233.45 42.3135Z" fill="#0052B4"/>
<path d="M1235.54 42.3135V49.0799C1236.1 49.204 1236.68 49.27 1237.28 49.27C1241.34 49.27 1244.7 46.2387 1245.21 42.3135H1235.54V42.3135Z" fill="#0052B4"/>
</g>
</g>
</g>
<g clip-path="url(#clip90_2_1713)">
<g clip-path="url(#clip91_2_1713)">
<g clip-path="url(#clip92_2_1713)">
<path d="M1269.28 49.2695C1273.7 49.2695 1277.28 45.6878 1277.28 41.2695C1277.28 36.8513 1273.7 33.2695 1269.28 33.2695C1264.86 33.2695 1261.28 36.8513 1261.28 41.2695C1261.28 45.6878 1264.86 49.2695 1269.28 49.2695Z" fill="#D80027"/>
<path d="M1273.45 39.8783H1270.67V37.0957H1267.89V39.8783H1265.11V42.6609H1267.89V45.4435H1270.67V42.6609H1273.45V39.8783Z" fill="#F0F0F0"/>
</g>
</g>
</g>
<g clip-path="url(#clip93_2_1713)">
<g clip-path="url(#clip94_2_1713)">
<g clip-path="url(#clip95_2_1713)">
<path d="M1301.28 49.2695C1305.7 49.2695 1309.28 45.6878 1309.28 41.2695C1309.28 36.8513 1305.7 33.2695 1301.28 33.2695C1296.86 33.2695 1293.28 36.8513 1293.28 41.2695C1293.28 45.6878 1296.86 49.2695 1301.28 49.2695Z" fill="#FFDA44"/>
<path d="M1293.28 41.2695C1293.28 36.8513 1296.86 33.2695 1301.28 33.2695C1305.7 33.2695 1309.28 36.8513 1309.28 41.2695" fill="#338AF3"/>
</g>
</g>
</g>
<g clip-path="url(#clip96_2_1713)">
<g clip-path="url(#clip97_2_1713)">
<g clip-path="url(#clip98_2_1713)">
<path d="M1333.28 49.2695C1337.7 49.2695 1341.28 45.6878 1341.28 41.2695C1341.28 36.8513 1337.7 33.2695 1333.28 33.2695C1328.86 33.2695 1325.28 36.8513 1325.28 41.2695C1325.28 45.6878 1328.86 49.2695 1333.28 49.2695Z" fill="#F0F0F0"/>
<path d="M1329.8 44.0518L1330.5 48.7716C1331.36 49.0932 1332.3 49.2692 1333.28 49.2692C1336.72 49.2692 1339.65 47.0982 1340.78 44.0518H1329.8Z" fill="black"/>
<path d="M1329.8 38.4869L1330.5 33.7671C1331.36 33.4455 1332.3 33.2695 1333.28 33.2695C1336.72 33.2695 1339.65 35.4405 1340.78 38.4869H1329.8Z" fill="#6DA544"/>
<path d="M1325.28 41.27C1325.28 44.7097 1327.45 47.642 1330.5 48.7724V33.7676C1327.45 34.8979 1325.28 37.8303 1325.28 41.27Z" fill="#A2001D"/>
</g>
</g>
</g>
<g clip-path="url(#clip99_2_1713)">
<g clip-path="url(#clip100_2_1713)">
<g clip-path="url(#clip101_2_1713)">
<path d="M1365.28 49.2695C1369.7 49.2695 1373.28 45.6878 1373.28 41.2695C1373.28 36.8513 1369.7 33.2695 1365.28 33.2695C1360.86 33.2695 1357.28 36.8513 1357.28 41.2695C1357.28 45.6878 1360.86 49.2695 1365.28 49.2695Z" fill="#F0F0F0"/>
<path d="M1358.93 36.3984C1358.31 37.216 1357.83 38.1584 1357.56 39.1821H1361.72L1358.93 36.3984Z" fill="#0052B4"/>
<path d="M1373 39.1821C1372.73 38.1584 1372.25 37.216 1371.63 36.3984L1368.84 39.1821H1373Z" fill="#0052B4"/>
<path d="M1357.56 43.3564C1357.83 44.3801 1358.31 45.3225 1358.93 46.14L1361.72 43.3564H1357.56Z" fill="#0052B4"/>
<path d="M1370.15 34.9231C1369.33 34.2947 1368.39 33.8209 1367.37 33.5449V37.7067L1370.15 34.9231Z" fill="#0052B4"/>
<path d="M1360.41 47.6156C1361.23 48.244 1362.17 48.7178 1363.19 48.9938V44.832L1360.41 47.6156Z" fill="#0052B4"/>
<path d="M1363.19 33.5449C1362.17 33.8209 1361.23 34.2947 1360.41 34.9231L1363.19 37.7067V33.5449Z" fill="#0052B4"/>
<path d="M1367.37 48.9938C1368.39 48.7178 1369.33 48.244 1370.15 47.6156L1367.37 44.832V48.9938Z" fill="#0052B4"/>
<path d="M1368.84 43.3564L1371.63 46.1401C1372.25 45.3225 1372.73 44.3801 1373 43.3564H1368.84Z" fill="#0052B4"/>
<path d="M1373.21 40.2261H1366.32H1366.32V33.3373C1365.98 33.2928 1365.63 33.2695 1365.28 33.2695C1364.93 33.2695 1364.58 33.2928 1364.24 33.3373V40.226V40.226H1357.35C1357.3 40.5676 1357.28 40.9159 1357.28 41.2695C1357.28 41.6233 1357.3 41.9714 1357.35 42.313H1364.24H1364.24V49.2018C1364.58 49.2463 1364.93 49.2695 1365.28 49.2695C1365.63 49.2695 1365.98 49.2463 1366.32 49.2018V42.3131V42.313H1373.21C1373.26 41.9714 1373.28 41.6233 1373.28 41.2695C1373.28 40.9159 1373.26 40.5676 1373.21 40.2261Z" fill="#D80027"/>
<path d="M1367.37 43.3565L1370.94 46.9264C1371.1 46.7622 1371.26 46.5906 1371.41 46.4128L1368.35 43.3564H1367.37V43.3565Z" fill="#D80027"/>
<path d="M1363.19 43.3564H1363.19L1359.62 46.9263C1359.79 47.0905 1359.96 47.2471 1360.14 47.3965L1363.19 44.3402V43.3564Z" fill="#D80027"/>
<path d="M1363.19 39.1823V39.1822L1359.62 35.6123C1359.46 35.7764 1359.3 35.948 1359.15 36.1259L1362.21 39.1822L1363.19 39.1823Z" fill="#D80027"/>
<path d="M1367.37 39.1827L1370.94 35.6128C1370.77 35.4486 1370.6 35.292 1370.42 35.1426L1367.37 38.1989V39.1827Z" fill="#D80027"/>
</g>
</g>
</g>
<g clip-path="url(#clip102_2_1713)">
<g clip-path="url(#clip103_2_1713)">
<g clip-path="url(#clip104_2_1713)">
<path d="M1397.28 49.2695C1401.7 49.2695 1405.28 45.6878 1405.28 41.2695C1405.28 36.8513 1401.7 33.2695 1397.28 33.2695C1392.86 33.2695 1389.28 36.8513 1389.28 41.2695C1389.28 45.6878 1392.86 49.2695 1397.28 49.2695Z" fill="#F0F0F0"/>
<path d="M1396.93 41.2696H1405.28C1405.28 40.5475 1405.18 39.848 1405 39.1826H1396.93V41.2696Z" fill="#D80027"/>
<path d="M1396.93 37.0958H1404.11C1403.62 36.2966 1402.99 35.5903 1402.26 35.0088H1396.93V37.0958Z" fill="#D80027"/>
<path d="M1397.28 49.2694C1399.16 49.2694 1400.89 48.6186 1402.26 47.5303H1392.3C1393.67 48.6186 1395.4 49.2694 1397.28 49.2694Z" fill="#D80027"/>
<path d="M1390.45 45.4434H1404.11C1404.5 44.8019 1404.8 44.1006 1405 43.3564H1389.56C1389.76 44.1006 1390.06 44.8019 1390.45 45.4434Z" fill="#D80027"/>
<path d="M1392.99 34.5188H1393.71L1393.04 35.0115L1393.3 35.8087L1392.62 35.316L1391.94 35.8087L1392.16 35.12C1391.57 35.6173 1391.04 36.2 1390.61 36.8493H1390.85L1390.41 37.1629C1390.35 37.2751 1390.28 37.389 1390.22 37.5047L1390.43 38.1391L1390.04 37.8597C1389.95 38.0622 1389.86 38.2693 1389.78 38.4807L1390.01 39.1797H1390.85L1390.17 39.6724L1390.43 40.4695L1389.75 39.9769L1389.34 40.272C1389.3 40.5988 1389.28 40.9317 1389.28 41.2695H1397.28C1397.28 36.8513 1397.28 36.3304 1397.28 33.2695C1395.7 33.2695 1394.23 33.728 1392.99 34.5188ZM1393.3 40.4695L1392.62 39.9769L1391.94 40.4695L1392.2 39.6724L1391.52 39.1797H1392.36L1392.62 38.3826L1392.88 39.1797H1393.71L1393.04 39.6724L1393.3 40.4695ZM1393.04 37.3419L1393.3 38.1391L1392.62 37.6464L1391.94 38.1391L1392.2 37.3419L1391.52 36.8493H1392.36L1392.62 36.0521L1392.88 36.8493H1393.71L1393.04 37.3419ZM1396.17 40.4695L1395.49 39.9769L1394.81 40.4695L1395.07 39.6724L1394.39 39.1797H1395.23L1395.49 38.3826L1395.75 39.1797H1396.58L1395.91 39.6724L1396.17 40.4695ZM1395.91 37.3419L1396.17 38.1391L1395.49 37.6464L1394.81 38.1391L1395.07 37.3419L1394.39 36.8493H1395.23L1395.49 36.0521L1395.75 36.8493H1396.58L1395.91 37.3419ZM1395.91 35.0115L1396.17 35.8087L1395.49 35.316L1394.81 35.8087L1395.07 35.0115L1394.39 34.5188H1395.23L1395.49 33.7217L1395.75 34.5188H1396.58L1395.91 35.0115Z" fill="#0052B4"/>
</g>
</g>
</g>
<defs>
<clipPath id="clip0_2_1713">
<rect x="301.28" y="33.2695" width="16" height="16" rx="8" fill="white"/>
</clipPath>
<clipPath id="clip1_2_1713">
<rect width="16" height="16" fill="white" transform="translate(301.28 33.2695)"/>
</clipPath>
<clipPath id="clip2_2_1713">
<rect width="16" height="16" fill="white" transform="translate(301.28 33.2695)"/>
</clipPath>
<clipPath id="clip3_2_1713">
<rect x="333.28" y="33.2695" width="16" height="16" rx="8" fill="white"/>
</clipPath>
<clipPath id="clip4_2_1713">
<rect width="16" height="16" fill="white" transform="translate(333.28 33.2695)"/>
</clipPath>
<clipPath id="clip5_2_1713">
<rect width="16" height="16" fill="white" transform="translate(333.28 33.2695)"/>
</clipPath>
<clipPath id="clip6_2_1713">
<rect x="365.28" y="33.2695" width="16" height="16" rx="8" fill="white"/>
</clipPath>
<clipPath id="clip7_2_1713">
<rect width="16" height="16" fill="white" transform="translate(365.28 33.2695)"/>
</clipPath>
<clipPath id="clip8_2_1713">
<rect width="16" height="16" fill="white" transform="translate(365.28 33.2695)"/>
</clipPath>
<clipPath id="clip9_2_1713">
<rect x="397.28" y="33.2695" width="16" height="16" rx="8" fill="white"/>
</clipPath>
<clipPath id="clip10_2_1713">
<rect width="16" height="16" fill="white" transform="translate(397.28 33.2695)"/>
</clipPath>
<clipPath id="clip11_2_1713">
<rect width="16" height="16" fill="white" transform="translate(397.28 33.2695)"/>
</clipPath>
<clipPath id="clip12_2_1713">
<rect x="429.28" y="33.2695" width="16" height="16" rx="8" fill="white"/>
</clipPath>
<clipPath id="clip13_2_1713">
<rect width="16" height="16" fill="white" transform="translate(429.28 33.2695)"/>
</clipPath>
<clipPath id="clip14_2_1713">
<rect width="16" height="16" fill="white" transform="translate(429.28 33.2695)"/>
</clipPath>
<clipPath id="clip15_2_1713">
<rect x="461.28" y="33.2695" width="16" height="16" rx="8" fill="white"/>
</clipPath>
<clipPath id="clip16_2_1713">
<rect width="16" height="16" fill="white" transform="translate(461.28 33.2695)"/>
</clipPath>
<clipPath id="clip17_2_1713">
<rect width="16" height="16" fill="white" transform="translate(461.28 33.2695)"/>
</clipPath>
<clipPath id="clip18_2_1713">
<rect x="493.28" y="33.2695" width="16" height="16" rx="8" fill="white"/>
</clipPath>
<clipPath id="clip19_2_1713">
<rect width="16" height="16" fill="white" transform="translate(493.28 33.2695)"/>
</clipPath>
<clipPath id="clip20_2_1713">
<rect width="16" height="16" fill="white" transform="translate(493.28 33.2695)"/>
</clipPath>
<clipPath id="clip21_2_1713">
<rect x="525.28" y="33.2695" width="16" height="16" rx="8" fill="white"/>
</clipPath>
<clipPath id="clip22_2_1713">
<rect width="16" height="16" fill="white" transform="translate(525.28 33.2695)"/>
</clipPath>
<clipPath id="clip23_2_1713">
<rect width="16" height="16" fill="white" transform="translate(525.28 33.2695)"/>
</clipPath>
<clipPath id="clip24_2_1713">
<rect x="557.28" y="33.2695" width="16" height="16" rx="8" fill="white"/>
</clipPath>
<clipPath id="clip25_2_1713">
<rect width="16" height="16" fill="white" transform="translate(557.28 33.2695)"/>
</clipPath>
<clipPath id="clip26_2_1713">
<rect width="16" height="16" fill="white" transform="translate(557.28 33.2695)"/>
</clipPath>
<clipPath id="clip27_2_1713">
<rect x="589.28" y="33.2695" width="16" height="16" rx="8" fill="white"/>
</clipPath>
<clipPath id="clip28_2_1713">
<rect width="16" height="16" fill="white" transform="translate(589.28 33.2695)"/>
</clipPath>
<clipPath id="clip29_2_1713">
<rect width="16" height="16" fill="white" transform="translate(589.28 33.2695)"/>
</clipPath>
<clipPath id="clip30_2_1713">
<rect x="621.28" y="33.2695" width="16" height="16" rx="8" fill="white"/>
</clipPath>
<clipPath id="clip31_2_1713">
<rect width="16" height="16" fill="white" transform="translate(621.28 33.2695)"/>
</clipPath>
<clipPath id="clip32_2_1713">
<rect width="16" height="16" fill="white" transform="translate(621.28 33.2695)"/>
</clipPath>
<clipPath id="clip33_2_1713">
<rect x="653.28" y="33.2695" width="16" height="16" rx="8" fill="white"/>
</clipPath>
<clipPath id="clip34_2_1713">
<rect width="16" height="16" fill="white" transform="translate(653.28 33.2695)"/>
</clipPath>
<clipPath id="clip35_2_1713">
<rect width="16" height="16" fill="white" transform="translate(653.28 33.2695)"/>
</clipPath>
<clipPath id="clip36_2_1713">
<rect x="685.28" y="33.2695" width="16" height="16" rx="8" fill="white"/>
</clipPath>
<clipPath id="clip37_2_1713">
<rect width="16" height="16" fill="white" transform="translate(685.28 33.2695)"/>
</clipPath>
<clipPath id="clip38_2_1713">
<rect width="16" height="16" fill="white" transform="translate(685.28 33.2695)"/>
</clipPath>
<clipPath id="clip39_2_1713">
<rect x="717.28" y="33.2695" width="16" height="16" rx="8" fill="white"/>
</clipPath>
<clipPath id="clip40_2_1713">
<rect width="16" height="16" fill="white" transform="translate(717.28 33.2695)"/>
</clipPath>
<clipPath id="clip41_2_1713">
<rect width="16" height="16" fill="white" transform="translate(717.28 33.2695)"/>
</clipPath>
<clipPath id="clip42_2_1713">
<rect x="749.28" y="33.2695" width="16" height="16" rx="8" fill="white"/>
</clipPath>
<clipPath id="clip43_2_1713">
<rect width="16" height="16" fill="white" transform="translate(749.28 33.2695)"/>
</clipPath>
<clipPath id="clip44_2_1713">
<rect width="16" height="16" fill="white" transform="translate(749.28 33.2695)"/>
</clipPath>
<clipPath id="clip45_2_1713">
<rect x="781.28" y="33.2695" width="16" height="16" rx="8" fill="white"/>
</clipPath>
<clipPath id="clip46_2_1713">
<rect width="16" height="16" fill="white" transform="translate(781.28 33.2695)"/>
</clipPath>
<clipPath id="clip47_2_1713">
<rect width="16" height="16" fill="white" transform="translate(781.28 33.2695)"/>
</clipPath>
<clipPath id="clip48_2_1713">
<rect x="813.28" y="33.2695" width="16" height="16" rx="8" fill="white"/>
</clipPath>
<clipPath id="clip49_2_1713">
<rect width="16" height="16" fill="white" transform="translate(813.28 33.2695)"/>
</clipPath>
<clipPath id="clip50_2_1713">
<rect width="16" height="16" fill="white" transform="translate(813.28 33.2695)"/>
</clipPath>
<clipPath id="clip51_2_1713">
<rect x="845.28" y="33.2695" width="16" height="16" rx="8" fill="white"/>
</clipPath>
<clipPath id="clip52_2_1713">
<rect width="16" height="16" fill="white" transform="translate(845.28 33.2695)"/>
</clipPath>
<clipPath id="clip53_2_1713">
<rect width="16" height="16" fill="white" transform="translate(845.28 33.2695)"/>
</clipPath>
<clipPath id="clip54_2_1713">
<rect x="877.28" y="33.2695" width="16" height="16" rx="8" fill="white"/>
</clipPath>
<clipPath id="clip55_2_1713">
<rect width="16" height="16" fill="white" transform="translate(877.28 33.2695)"/>
</clipPath>
<clipPath id="clip56_2_1713">
<rect width="16" height="16" fill="white" transform="translate(877.28 33.2695)"/>
</clipPath>
<clipPath id="clip57_2_1713">
<rect x="909.28" y="33.2695" width="16" height="16" rx="8" fill="white"/>
</clipPath>
<clipPath id="clip58_2_1713">
<rect width="16" height="16" fill="white" transform="translate(909.28 33.2695)"/>
</clipPath>
<clipPath id="clip59_2_1713">
<rect width="16" height="16" fill="white" transform="translate(909.28 33.2695)"/>
</clipPath>
<clipPath id="clip60_2_1713">
<rect x="941.28" y="33.2695" width="16" height="16" rx="8" fill="white"/>
</clipPath>
<clipPath id="clip61_2_1713">
<rect width="16" height="16" fill="white" transform="translate(941.28 33.2695)"/>
</clipPath>
<clipPath id="clip62_2_1713">
<rect width="16" height="16" fill="white" transform="translate(941.28 33.2695)"/>
</clipPath>
<clipPath id="clip63_2_1713">
<rect x="973.28" y="33.2695" width="16" height="16" rx="8" fill="white"/>
</clipPath>
<clipPath id="clip64_2_1713">
<rect width="16" height="16" fill="white" transform="translate(973.28 33.2695)"/>
</clipPath>
<clipPath id="clip65_2_1713">
<rect width="16" height="16" fill="white" transform="translate(973.28 33.2695)"/>
</clipPath>
<clipPath id="clip66_2_1713">
<rect x="1005.28" y="33.2695" width="16" height="16" rx="8" fill="white"/>
</clipPath>
<clipPath id="clip67_2_1713">
<rect width="16" height="16" fill="white" transform="translate(1005.28 33.2695)"/>
</clipPath>
<clipPath id="clip68_2_1713">
<rect width="16" height="16" fill="white" transform="translate(1005.28 33.2695)"/>
</clipPath>
<clipPath id="clip69_2_1713">
<rect x="1037.28" y="33.2695" width="16" height="16" rx="8" fill="white"/>
</clipPath>
<clipPath id="clip70_2_1713">
<rect width="16" height="16" fill="white" transform="translate(1037.28 33.2695)"/>
</clipPath>
<clipPath id="clip71_2_1713">
<rect width="16" height="16" fill="white" transform="translate(1037.28 33.2695)"/>
</clipPath>
<clipPath id="clip72_2_1713">
<rect x="1069.28" y="33.2695" width="16" height="16" rx="8" fill="white"/>
</clipPath>
<clipPath id="clip73_2_1713">
<rect width="16" height="16" fill="white" transform="translate(1069.28 33.2695)"/>
</clipPath>
<clipPath id="clip74_2_1713">
<rect width="16" height="16" fill="white" transform="translate(1069.28 33.2695)"/>
</clipPath>
<clipPath id="clip75_2_1713">
<rect x="1101.28" y="33.2695" width="16" height="16" rx="8" fill="white"/>
</clipPath>
<clipPath id="clip76_2_1713">
<rect width="16" height="16" fill="white" transform="translate(1101.28 33.2695)"/>
</clipPath>
<clipPath id="clip77_2_1713">
<rect width="16" height="16" fill="white" transform="translate(1101.28 33.2695)"/>
</clipPath>
<clipPath id="clip78_2_1713">
<rect x="1133.28" y="33.2695" width="16" height="16" rx="8" fill="white"/>
</clipPath>
<clipPath id="clip79_2_1713">
<rect width="16" height="16" fill="white" transform="translate(1133.28 33.2695)"/>
</clipPath>
<clipPath id="clip80_2_1713">
<rect width="16" height="16" fill="white" transform="translate(1133.28 33.2695)"/>
</clipPath>
<clipPath id="clip81_2_1713">
<rect x="1165.28" y="33.2695" width="16" height="16" rx="8" fill="white"/>
</clipPath>
<clipPath id="clip82_2_1713">
<rect width="16" height="16" fill="white" transform="translate(1165.28 33.2695)"/>
</clipPath>
<clipPath id="clip83_2_1713">
<rect width="16" height="16" fill="white" transform="translate(1165.28 33.2695)"/>
</clipPath>
<clipPath id="clip84_2_1713">
<rect x="1197.28" y="33.2695" width="16" height="16" rx="8" fill="white"/>
</clipPath>
<clipPath id="clip85_2_1713">
<rect width="16" height="16" fill="white" transform="translate(1197.28 33.2695)"/>
</clipPath>
<clipPath id="clip86_2_1713">
<rect width="16" height="16" fill="white" transform="translate(1197.28 33.2695)"/>
</clipPath>
<clipPath id="clip87_2_1713">
<rect x="1229.28" y="33.2695" width="16" height="16" rx="8" fill="white"/>
</clipPath>
<clipPath id="clip88_2_1713">
<rect width="16" height="16" fill="white" transform="translate(1229.28 33.2695)"/>
</clipPath>
<clipPath id="clip89_2_1713">
<rect width="16" height="16" fill="white" transform="translate(1229.28 33.2695)"/>
</clipPath>
<clipPath id="clip90_2_1713">
<rect x="1261.28" y="33.2695" width="16" height="16" rx="8" fill="white"/>
</clipPath>
<clipPath id="clip91_2_1713">
<rect width="16" height="16" fill="white" transform="translate(1261.28 33.2695)"/>
</clipPath>
<clipPath id="clip92_2_1713">
<rect width="16" height="16" fill="white" transform="translate(1261.28 33.2695)"/>
</clipPath>
<clipPath id="clip93_2_1713">
<rect x="1293.28" y="33.2695" width="16" height="16" rx="8" fill="white"/>
</clipPath>
<clipPath id="clip94_2_1713">
<rect width="16" height="16" fill="white" transform="translate(1293.28 33.2695)"/>
</clipPath>
<clipPath id="clip95_2_1713">
<rect width="16" height="16" fill="white" transform="translate(1293.28 33.2695)"/>
</clipPath>
<clipPath id="clip96_2_1713">
<rect x="1325.28" y="33.2695" width="16" height="16" rx="8" fill="white"/>
</clipPath>
<clipPath id="clip97_2_1713">
<rect width="16" height="16" fill="white" transform="translate(1325.28 33.2695)"/>
</clipPath>
<clipPath id="clip98_2_1713">
<rect width="16" height="16" fill="white" transform="translate(1325.28 33.2695)"/>
</clipPath>
<clipPath id="clip99_2_1713">
<rect x="1357.28" y="33.2695" width="16" height="16" rx="8" fill="white"/>
</clipPath>
<clipPath id="clip100_2_1713">
<rect width="16" height="16" fill="white" transform="translate(1357.28 33.2695)"/>
</clipPath>
<clipPath id="clip101_2_1713">
<rect width="16" height="16" fill="white" transform="translate(1357.28 33.2695)"/>
</clipPath>
<clipPath id="clip102_2_1713">
<rect x="1389.28" y="33.2695" width="16" height="16" rx="8" fill="white"/>
</clipPath>
<clipPath id="clip103_2_1713">
<rect width="16" height="16" fill="white" transform="translate(1389.28 33.2695)"/>
</clipPath>
<clipPath id="clip104_2_1713">
<rect width="16" height="16" fill="white" transform="translate(1389.28 33.2695)"/>
</clipPath>
</defs>
</svg>
