<svg width="66" height="65" viewBox="0 0 66 65" fill="none" xmlns="http://www.w3.org/2000/svg">
<path opacity="0.5" d="M55.6934 4.55V40.95C55.6934 43.4417 53.635 45.5 51.1434 45.5H14.7434C12.2517 45.5 10.1934 43.4417 10.1934 40.95V4.55C10.1934 2.05833 12.2517 0 14.7434 0H51.1434C53.7434 0 55.6934 2.05833 55.6934 4.55Z" fill="#BFC6FE"/>
<path d="M24.8076 27.2025C24.1576 24.1692 24.1576 20.9192 25.0242 17.8858C25.5659 16.2608 26.7576 14.8525 28.1659 13.9858C30.9826 12.5775 34.1242 12.5775 36.9409 14.2025C38.3492 14.9608 39.4326 16.4775 40.0826 18.1025C41.2742 20.9192 41.4909 24.3858 40.6242 27.4192C40.2992 24.6025 39.4326 20.7025 38.1326 18.3192C36.9409 16.2608 34.7742 15.2858 32.7159 15.5025C30.6576 15.2858 28.4909 16.2608 27.2992 18.3192C26.6492 19.5108 26.7576 23.1942 26.4326 24.3858C25.8909 25.5775 25.3492 25.7942 24.8076 27.2025Z" fill="#5161CF"/>
<path d="M20.3659 25.3608H44.8492C46.9075 25.3608 48.5325 27.0942 48.5325 29.1525V48.9775C48.5325 51.1442 46.9075 52.7692 44.8492 52.7692H20.3659C18.3075 52.7692 16.6825 51.0358 16.6825 48.9775V29.2608C16.4659 27.0942 18.4159 25.3608 20.3659 25.3608Z" fill="#BFC6F9"/>
<path d="M44.8493 53.0942C40.2993 53.0942 35.6409 53.5275 31.0909 53.7442C28.8159 53.9608 26.5409 53.9608 24.1576 53.9608H20.5826C19.1743 53.9608 17.6576 53.3108 16.6826 52.2275C16.2493 51.5775 15.8159 50.9275 15.8159 50.2775C15.8159 49.8442 15.8159 49.6275 15.8159 49.1942V48.3275L16.0326 44.7525C16.2493 42.3692 16.2493 40.0942 16.2493 37.4942C16.2493 35.1108 16.2493 32.8358 16.2493 30.2358C16.0326 28.9358 16.2493 27.6358 17.1159 26.4442C17.9826 25.3608 19.1743 24.4942 20.3659 24.4942C24.9159 24.2775 29.5743 24.0608 34.1243 24.0608L41.0576 23.8442H44.5243C47.0159 23.6275 49.0743 25.3608 49.6159 27.6358C49.6159 28.0692 49.8326 28.5025 49.8326 28.7192V29.5858V33.1608C49.8326 35.5442 49.6159 37.8192 49.3993 40.4192L48.9659 47.6775C48.9659 48.3275 48.9659 48.9775 48.7493 49.6275C48.5326 50.2775 48.3159 50.9275 47.8826 51.3608C47.3409 52.4442 46.0409 53.0942 44.8493 53.0942ZM44.8493 52.8775C46.0409 52.8775 47.1243 52.2275 47.7743 51.3608C48.4243 50.2775 48.6409 49.1942 48.4243 48.0025L47.9909 40.7442C47.7743 38.3608 47.7743 36.0858 47.5576 33.4858V29.9108V29.0442C47.5576 28.8275 47.5576 28.6108 47.5576 28.3942C47.3409 27.9608 47.1243 27.5275 46.6909 27.3108C46.0409 26.6608 45.2826 26.2275 44.6326 26.4442H41.1659H34.2326C29.6826 26.4442 25.0243 26.2275 20.4743 26.0108C18.8493 26.0108 17.5493 27.0942 17.2243 28.6108C17.2243 29.2608 17.2243 29.6942 17.2243 30.3442C17.2243 32.7275 17.2243 35.0025 17.2243 37.6025C17.2243 39.9858 17.4409 42.2608 17.4409 44.8608L17.6576 48.4358V49.3025C17.6576 49.5192 17.6576 49.7358 17.8743 49.9525C18.0909 50.3858 18.3076 50.8192 18.5243 51.0358C19.1743 51.6858 19.9326 52.1192 20.7993 51.9025H24.2659C26.5409 51.9025 28.8159 52.1192 31.1993 52.1192C35.6409 52.4442 40.0826 52.8775 44.8493 52.8775Z" fill="#5161CF"/>
<path d="M32.6184 38.2417C34.6526 38.2417 36.3017 36.5926 36.3017 34.5583C36.3017 32.5241 34.6526 30.875 32.6184 30.875C30.5841 30.875 28.9351 32.5241 28.9351 34.5583C28.9351 36.5926 30.5841 38.2417 32.6184 38.2417Z" fill="white"/>
<path d="M36.0851 45.7166L28.7184 45.3916L31.3184 37.8083H34.0267L36.0851 45.7166Z" fill="white"/>
<path d="M28.1766 34.6666C28.1766 33.475 28.7183 32.3916 29.585 31.525C30.4516 30.7666 31.535 30.3333 32.7266 30.3333C33.81 30.3333 34.8933 30.875 35.6516 31.6333C36.41 32.3916 36.8433 33.475 36.8433 34.5583C36.8433 35.6416 36.41 36.725 35.6516 37.4833C34.8933 38.2416 33.81 38.7833 32.7266 38.7833C31.6433 38.7833 30.4516 38.4583 29.6933 37.5916C28.7183 36.9416 28.1766 35.8583 28.1766 34.6666ZM29.26 34.6666C29.26 35.5333 29.585 36.5083 30.1266 37.1583C30.7766 37.8083 31.6433 38.2416 32.6183 38.35C33.5933 38.35 34.5683 38.025 35.2183 37.375C35.8683 36.725 36.3016 35.75 36.3016 34.775C36.3016 33.8 35.8683 32.825 35.2183 32.175C34.5683 31.525 33.5933 31.2 32.6183 31.2C31.6433 31.2 30.7766 31.6333 30.1266 32.2833C29.585 32.825 29.26 33.8 29.26 34.6666Z" fill="#5161CF"/>
<path d="M34.135 38.2416C34.6767 39.4333 35.11 40.7333 35.5434 41.925C35.9767 43.225 36.41 44.4166 36.735 45.7166L36.9517 46.475H36.1933C33.7017 46.5833 31.21 46.5833 28.7184 46.5833H27.8517L28.0684 45.7166C28.3934 44.4166 28.7183 43.225 29.1517 41.925C29.585 40.625 29.91 39.4333 30.3434 38.1333L31.4267 38.4583C31.21 39.7583 30.885 41.0583 30.56 42.3583C30.235 43.6583 29.91 44.9583 29.585 46.15L28.935 45.2833C31.4267 45.2833 33.81 45.2833 36.3017 45.3916L35.76 46.15C35.435 44.85 35.2184 43.55 34.8934 42.25C34.46 40.8416 34.2434 39.5416 34.135 38.2416Z" fill="#5161CF"/>
</svg>
