<svg width="192" height="53" viewBox="0 0 192 53" fill="none" xmlns="http://www.w3.org/2000/svg">
<g clip-path="url(#clip0_2_2595)">
<path d="M17.115 27.9038L9.30281 10.0822H0.575119V34.9225H6.25117V15.7582L14.6737 34.9225H19.3122L27.7958 15.7582V34.9225H33.4108V10.0822H24.8052L17.115 27.9038ZM50.1948 10.0822L37.7441 34.9836H43.9085L46.5329 29.6737H60.2042L62.8286 34.9836H69.115L56.7254 10.0822H50.1948ZM48.9131 24.8521L53.4296 15.7582L57.885 24.8521H48.9131ZM100.303 10.0822H92.3075L79.3075 21.4343V10.0822H73.5094V34.9225H79.3075V28.0869L83.885 24.1197L93.6502 34.9225H101.096L88.0962 20.5188L100.303 10.0822ZM105.063 34.9225H129.232V29.9789H110.739V24.669H127.218V19.7864H110.739V15.0258H129.232V10.0822H105.063V34.9225ZM181.721 10.0822H166.035V34.9836H171.833V26.3169H181.721C187.58 26.3169 191.425 23.5094 191.425 18.1995C191.425 12.8286 187.58 10.0822 181.721 10.0822ZM181.415 21.4343H171.833V14.9648H181.415C184.162 14.9648 185.688 16.1244 185.688 18.1995C185.688 20.2136 184.101 21.4343 181.415 21.4343ZM154.439 23.0211C154.439 27.4155 152.425 30.284 147.298 30.284C142.171 30.284 140.096 27.4155 140.096 23.0211V10.0822H134.298V23.5094C134.298 30.7113 138.57 35.3498 147.237 35.3498C155.843 35.3498 160.176 30.7113 160.176 23.5094V10.0822H154.378V23.0211H154.439ZM147.298 6.84742C147.969 6.84742 148.641 6.90846 149.251 7.03052L152.303 2.33099C150.96 1.23239 149.495 0.5 147.298 0.5C145.101 0.5 143.575 1.17136 142.232 2.33099L145.284 7.03052C145.955 6.90846 146.627 6.84742 147.298 6.84742ZM32.0681 52.3779V46.0916H34.8756C35.9742 46.0916 36.6455 46.7629 36.6455 47.6784C36.6455 48.4718 36.0962 49.0211 35.5469 49.1432C36.2183 49.2653 36.7676 49.9366 36.7676 50.669C36.7676 51.7066 36.0962 52.3779 34.9366 52.3779H32.0681ZM35.7911 47.8005C35.7911 47.2512 35.4249 46.7629 34.6925 46.7629H32.8005V48.777H34.6925C35.4249 48.777 35.7911 48.3498 35.7911 47.8005ZM35.9131 50.608C35.9131 50.0587 35.4859 49.5094 34.7535 49.5094H32.8005V51.7066H34.7535C35.4859 51.7066 35.9131 51.2793 35.9131 50.608ZM38.9648 52.3779V46.0916H43.115V46.7629H39.7582V48.777H43.054V49.4484H39.7582V51.6455H43.115V52.3169H38.9648V52.3779ZM49.7676 52.3779L49.2183 50.9742H46.0446L45.4953 52.3779H44.5798L47.1432 46.0916H48.1197L50.6831 52.3779H49.7676ZM47.6315 46.885L46.2887 50.3028H48.9742L47.6315 46.885ZM52.2089 49.9366V46.0916H53.0023V49.9366C53.0023 51.0962 53.6127 51.8286 54.7723 51.8286C55.9319 51.8286 56.5422 51.0962 56.5422 49.9366V46.0916H57.3357V49.9366C57.3357 51.5235 56.4812 52.5 54.7723 52.5C53.0634 52.5 52.2089 51.4624 52.2089 49.9366ZM61.3639 52.3779V46.7629H59.3498V46.0916H64.1103V46.7629H62.0962V52.3779H61.3639ZM67.9554 52.3779V49.6925L65.453 46.0305H66.3685L68.3216 48.9601L70.2746 46.0305H71.1901L68.6878 49.6925V52.3779H67.9554ZM81.1995 52.3779L79.7958 47.3122L78.392 52.3779H77.5376L75.7676 46.0916H76.6221L78.0258 51.3404L79.4906 46.0916H80.162L81.6268 51.3404L83.0305 46.0916H83.885L82.115 52.3779H81.1995ZM85.716 52.3779V46.0916H86.5094V52.3779H85.716ZM90.4765 52.3779V46.7629H88.4624V46.0916H93.284V46.7629H91.27V52.3779H90.4765ZM99.7535 52.3779V49.5094H96.0305V52.3779H95.2371V46.0916H96.0305V48.838H99.7535V46.0916H100.547V52.3779H99.7535ZM102.683 49.2042C102.683 47.3122 103.965 45.9084 105.796 45.9084C107.688 45.9084 108.908 47.3122 108.908 49.2042C108.908 51.0963 107.627 52.5 105.796 52.5C103.965 52.5 102.683 51.0963 102.683 49.2042ZM108.176 49.2042C108.176 47.7394 107.261 46.6408 105.857 46.6408C104.453 46.6408 103.538 47.7394 103.538 49.2042C103.538 50.669 104.453 51.7676 105.857 51.7676C107.261 51.7676 108.176 50.669 108.176 49.2042ZM111.167 49.9366V46.0916H111.96V49.9366C111.96 51.0962 112.57 51.8286 113.73 51.8286C114.89 51.8286 115.5 51.0962 115.5 49.9366V46.0916H116.293V49.9366C116.293 51.5235 115.439 52.5 113.73 52.5C112.021 52.5 111.167 51.4624 111.167 49.9366ZM120.261 52.3779V46.7629H118.246V46.0916H123.007V46.7629H121.054V52.3779H120.261ZM128.439 52.3779V46.0916H129.232V51.7066H132.162V52.3779H128.439ZM134.237 52.3779V46.0916H135.031V52.3779H134.237ZM142.843 52.3779V47.1901L140.707 52.3779H140.401L138.265 47.1901V52.3779H137.472V46.0916H138.57L140.523 50.8521L142.477 46.0916H143.575V52.3779H142.843ZM146.077 52.3779V46.0916H146.871V52.3779H146.077ZM150.838 52.3779V46.7629H148.824V46.0916H153.584V46.7629H151.57V52.3779H150.838ZM155.171 51.4624L155.66 50.8521C156.087 51.3404 156.758 51.7676 157.674 51.7676C158.772 51.7676 159.139 51.1573 159.139 50.669C159.139 49.0211 155.415 49.9366 155.415 47.6784C155.415 46.6409 156.331 45.9084 157.613 45.9084C158.589 45.9084 159.322 46.2136 159.871 46.7629L159.383 47.3122C158.894 46.7629 158.223 46.5798 157.552 46.5798C156.819 46.5798 156.27 47.007 156.27 47.5563C156.27 48.9601 159.993 48.1667 159.993 50.5469C159.993 51.4624 159.383 52.3779 157.674 52.3779C156.514 52.5 155.721 52.0728 155.171 51.4624Z" fill="black"/>
</g>
<defs>
<clipPath id="clip0_2_2595">
<rect width="190.85" height="52" fill="white" transform="translate(0.575119 0.5)"/>
</clipPath>
</defs>
</svg>
