<svg width="66" height="65" viewBox="0 0 66 65" fill="none" xmlns="http://www.w3.org/2000/svg">
<g clip-path="url(#clip0_2_117)">
<g opacity="0.5">
<path opacity="0.15" d="M65.1899 4.11667V60.9917C65.1899 63.2667 63.3483 65.1083 61.0733 65.1083H4.30661C2.03161 65 0.189941 63.1583 0.189941 60.8833V4.11667C0.189941 1.84167 2.03161 0 4.30661 0H61.1816C63.3483 0 65.1899 1.84167 65.1899 4.11667Z" fill="white"/>
<path opacity="0.5" d="M55.4399 4.87501V41.275C55.4399 43.7667 53.3816 45.825 50.8899 45.825H14.4899C11.9983 45.825 9.93994 43.7667 9.93994 41.275V4.87501C9.93994 2.38335 11.9983 0.325012 14.4899 0.325012H50.8899C53.3816 0.325012 55.4399 2.38335 55.4399 4.87501Z" fill="#BFC6FE"/>
</g>
<path d="M23.3733 40.5167L35.3983 48.1L24.8899 64.675L22.1816 59.6917C21.4233 58.3917 20.1233 57.525 18.6066 57.4167L12.9733 57.0917L23.3733 40.5167Z" fill="#5161CF"/>
<path d="M28.3566 43.55L40.9232 36.8334L50.2399 54.1667H44.6066C43.0899 54.1667 41.6816 54.925 40.8149 56.225L37.6732 60.9917L28.3566 43.55Z" fill="#2D2FA7"/>
<path d="M15.4649 42.3583C15.2483 42.0333 14.7066 41.1667 15.3566 40.0833C16.2233 38.5667 16.4399 36.8333 15.8983 35.2083C15.3566 33.5833 14.1649 32.2833 12.5399 31.6333C11.4566 31.0917 11.3483 30.1167 11.3483 29.7917C11.3483 29.4667 11.4566 28.3833 12.6483 27.95C14.1649 27.3 15.3566 26 16.0066 24.375C16.5483 22.75 16.3316 20.9083 15.4649 19.5C14.9233 18.4167 15.3566 17.55 15.5733 17.3333C15.7899 17.1167 16.4399 16.25 17.6316 16.575C19.2566 17.0083 21.0983 16.575 22.3983 15.6C23.8066 14.625 24.6733 13 24.8899 11.375C24.9983 10.1833 25.9733 9.74999 26.2983 9.64166C26.6233 9.53333 27.5983 9.31666 28.4649 10.1833C29.5483 11.4833 31.1733 12.2417 32.9066 12.2417C34.5316 12.2417 36.2649 11.5917 37.3483 10.1833C38.1066 9.31666 39.1899 9.53333 39.5149 9.64166C39.8399 9.74999 40.8149 10.1833 40.9233 11.375C41.1399 13 42.0066 14.625 43.4149 15.6C44.8233 16.575 46.5566 17.0083 48.1816 16.575C49.3733 16.25 50.0233 17.1167 50.2399 17.3333C50.4566 17.6583 50.8899 18.525 50.3483 19.6083C49.4816 21.125 49.2649 22.8583 49.8066 24.4833C50.3483 26.1083 51.5399 27.4083 53.1649 28.0583C54.2483 28.6 54.3566 29.575 54.3566 29.9C54.3566 30.225 54.2483 31.3083 53.0566 31.7417C51.5399 32.3917 50.3483 33.6917 49.6983 35.3167C49.1566 36.9417 49.3733 38.7833 50.2399 40.1917C50.7816 41.275 50.3483 42.1417 50.1316 42.3583C49.9149 42.575 49.2649 43.4417 48.0733 43.1167C46.4483 42.6833 44.6066 43.1167 43.3066 44.0917C41.8983 45.0667 41.0316 46.6917 40.8149 48.3167C40.7066 49.5083 39.7316 49.9417 39.4066 50.05C39.0816 50.1583 38.1066 50.375 37.2399 49.5083C36.1566 48.2083 34.5316 47.45 32.7983 47.45C31.0649 47.45 29.4399 48.1 28.3566 49.5083C27.5983 50.375 26.5149 50.1583 26.1899 50.05C25.8649 49.9417 24.8899 49.5083 24.7816 48.3167C24.5649 46.6917 23.6983 45.0667 22.2899 44.0917C21.3149 43.3333 20.0149 42.9 18.7149 42.9C18.2816 42.9 17.8483 42.9 17.4149 43.0083C16.3316 43.3333 15.6816 42.575 15.4649 42.3583Z" fill="#BFC6F9"/>
<path d="M50.2399 16.9C50.5649 17.4417 50.6733 17.9834 50.6733 18.525C50.6733 19.0667 50.2399 19.6084 50.1316 19.9334C49.6983 20.8 49.4816 21.6667 49.5899 22.6417C49.5899 23.6167 49.9149 24.4834 50.3483 25.35C50.7816 26.2167 51.5399 26.8667 52.2983 27.4084C52.7316 27.625 53.1649 27.8417 53.5983 28.1667C54.0316 28.4917 54.2483 29.0334 54.2483 29.575C54.3566 30.1167 54.1399 30.6584 53.9233 31.0917C53.5983 31.525 53.1649 31.7417 52.7316 31.9584C50.9983 32.825 49.6983 34.5584 49.4816 36.4C49.3733 37.375 49.4816 38.35 49.8066 39.2167C49.9149 39.65 50.2399 40.0834 50.4566 40.5167C50.6733 40.95 50.6733 41.4917 50.4566 41.925C50.3483 42.1417 50.2399 42.3584 50.0233 42.4667C49.8066 42.6834 49.6983 42.7917 49.4816 42.9C49.0483 43.1167 48.5066 43.1167 48.0733 43.0084C47.0983 42.7917 46.1233 42.9 45.1483 43.1167C43.3066 43.6584 41.6816 45.175 41.1399 47.0167C41.0316 47.45 40.9233 47.9917 40.8149 48.425C40.7066 48.8584 40.3816 49.2917 40.0566 49.6167C39.2983 50.2667 38.1066 50.05 37.3483 49.2917C36.3733 48.1 34.8566 47.3417 33.3399 47.2334C31.8233 47.125 30.1983 47.6667 29.1149 48.75C28.7899 48.9667 28.6816 49.2917 28.3566 49.6167C28.0316 49.8334 27.7066 50.05 27.2733 50.05C26.5149 50.1584 25.6483 49.725 25.2149 49.075C24.9983 48.75 24.9983 48.3167 24.8899 47.8834C24.7816 47.5584 24.6733 47.125 24.5649 46.8C24.3483 46.15 23.9149 45.3917 23.3733 44.85C22.3983 43.7667 20.8816 43.1167 19.4733 43.0084C19.1483 43.0084 18.7149 43.0084 18.3899 43.1167C18.1733 43.1167 18.0649 43.225 17.8483 43.225C17.6316 43.225 17.4149 43.3334 17.1983 43.3334C16.2233 43.3334 15.4649 42.6834 15.1399 41.8167C14.9233 41.3834 14.9233 40.95 15.0316 40.5167C15.0316 40.3 15.1399 40.0834 15.2483 39.8667C15.3566 39.65 15.4649 39.5417 15.4649 39.325C15.7899 38.675 15.8983 38.025 16.0066 37.2667C16.0066 36.5084 15.8983 35.8584 15.6816 35.2084C15.4649 34.5584 15.1399 33.9084 14.5983 33.475C14.1649 32.9334 13.5149 32.5 12.9733 32.2834C12.7566 32.175 12.2149 31.9584 11.7816 31.6334C11.4566 31.3084 11.1316 30.7667 11.0233 30.3334C10.8066 29.3584 11.1316 28.1667 11.9983 27.5167C12.2149 27.4084 12.4316 27.1917 12.6483 27.1917C12.7566 27.0834 12.9733 27.0834 13.0816 26.975C13.4066 26.7584 13.6233 26.65 13.9483 26.4334C14.4899 26 14.8149 25.4584 15.1399 24.8084C15.2483 24.4834 15.4649 24.1584 15.4649 23.9417C15.5733 23.6167 15.5733 23.2917 15.5733 22.9667C15.5733 22.3167 15.5733 21.6667 15.3566 21.0167C15.2483 20.6917 15.1399 20.3667 14.9233 20.15L14.8149 19.9334C14.7066 19.825 14.7066 19.7167 14.5983 19.6084C14.4899 19.3917 14.3816 19.0667 14.3816 18.85C14.2733 18.3084 14.3816 17.7667 14.7066 17.225C14.7066 17.1167 14.8149 17.1167 14.8149 17.0084C14.8149 16.9 15.0316 16.7917 15.0316 16.7917L15.2483 16.575C15.4649 16.3584 15.6816 16.25 15.8983 16.1417C16.3316 15.8167 16.9816 15.7084 17.5233 15.8167C17.6316 15.8167 17.8483 15.8167 17.9566 15.925H18.1733C18.2816 15.925 18.4983 15.925 18.6066 16.0334C19.9066 16.1417 21.3149 15.7084 22.2899 14.8417C23.2649 13.975 23.9149 12.7834 24.1316 11.375C24.2399 10.8334 24.4566 10.2917 24.7816 9.85835C25.1066 9.42502 25.5399 9.10002 26.0816 8.99169C27.1649 8.66669 28.3566 9.10002 29.0066 9.75002C30.3066 11.1584 32.3649 11.8084 34.2066 11.1584C34.6399 11.05 35.0732 10.8334 35.5066 10.5084C35.7233 10.4 35.8316 10.1834 36.0483 10.075C36.1566 9.96669 36.1566 9.96669 36.2649 9.85835C36.3733 9.75002 36.3733 9.64169 36.5899 9.53335C37.1316 8.88335 38.1066 8.66669 38.8649 8.66669C39.1899 8.66669 39.7316 8.77502 40.0566 8.99169C40.3816 9.20835 40.7066 9.42502 41.0316 9.75002C41.2483 10.075 41.4649 10.5084 41.5733 10.8334C41.5733 11.05 41.6816 11.2667 41.6816 11.375C41.6816 11.4834 41.6816 11.5917 41.6816 11.7C41.7899 12.1334 41.8983 12.675 42.1149 13.1084C42.5483 13.975 43.1983 14.7334 44.0649 15.3834C44.9316 15.925 45.9066 16.25 46.9899 16.3584C47.3149 16.3584 47.5316 16.3584 47.7483 16.3584C47.9649 16.3584 48.2899 16.25 48.6149 16.25C49.1566 16.0334 49.8066 16.4667 50.2399 16.9ZM49.6983 17.3334C49.3733 17.0084 48.9399 16.7917 48.5066 16.7917C48.2899 16.7917 48.0733 16.9 47.7483 16.9C47.4233 17.0084 47.0983 17.0084 46.8816 17.0084C45.6899 17.1167 44.3899 16.9 43.3066 16.25C42.2233 15.7084 41.2483 14.7334 40.5983 13.65C40.2733 13.1084 40.0566 12.4584 39.9483 11.8084C39.8399 11.05 39.8399 10.8334 39.6233 10.6167C39.5149 10.5084 39.4066 10.4 39.2983 10.4C39.1899 10.2917 39.0816 10.2917 38.8649 10.2917C38.5399 10.2917 38.2149 10.4 37.9983 10.6167C37.9983 10.6167 37.8899 10.8334 37.7816 10.9417C37.6733 11.05 37.5649 11.1584 37.4566 11.2667C37.2399 11.4834 36.9149 11.7 36.6983 11.9167C36.1566 12.35 35.5066 12.5667 34.8566 12.7834C33.5566 13.1084 32.2566 13.2167 30.9566 12.7834C29.6566 12.35 28.5733 11.7 27.7066 10.6167C27.3816 10.1834 26.8399 10.075 26.4066 10.1834C26.2983 10.1834 25.9733 10.4 25.8649 10.5084C25.7566 10.725 25.6483 10.8334 25.6483 11.1584C25.4316 12.8917 24.6733 14.5167 23.2649 15.7084C21.9649 16.9 20.1233 17.4417 18.3899 17.3334C18.1733 17.3334 17.9566 17.3334 17.7399 17.225L17.1983 17.1167C16.9816 17.1167 16.8733 17.1167 16.6566 17.225C16.5483 17.3334 16.4399 17.3334 16.3316 17.4417L16.1149 17.6584C16.0066 17.7667 16.0066 17.9834 16.0066 18.2C16.0066 18.3084 16.0066 18.4167 16.1149 18.525C16.1149 18.6334 16.1149 18.6334 16.2233 18.6334L16.3316 18.85C16.5483 19.2834 16.6566 19.6084 16.8733 20.0417C17.0899 20.9084 17.1983 21.775 17.0899 22.6417C17.0899 23.075 16.9816 23.5084 16.8733 23.9417C16.7649 24.375 16.5483 24.8084 16.3316 25.1334C15.8983 25.8917 15.3566 26.5417 14.7066 27.1917C14.3816 27.5167 14.0566 27.7334 13.6233 27.95C13.4066 28.0584 13.1899 28.1667 13.0816 28.275C12.8649 28.3834 12.8649 28.3834 12.7566 28.4917C12.3233 28.7084 12.1066 29.3584 12.2149 29.7917C12.2149 30.0084 12.3233 30.3334 12.5399 30.4417C12.6483 30.6584 12.8649 30.7667 13.2983 30.9834C14.0566 31.4167 14.7066 31.9584 15.2483 32.6084C15.7899 33.2584 16.2233 34.0167 16.4399 34.8834C16.6566 35.6417 16.7649 36.5084 16.7649 37.375C16.6566 38.2417 16.4399 39 16.1149 39.7584C15.8983 40.1917 15.6816 40.4084 15.6816 40.7334C15.5733 41.0584 15.5733 41.3834 15.6816 41.7084C15.8983 42.3584 16.4399 42.7917 17.0899 42.9C17.1983 42.9 17.4149 42.9 17.5233 42.9C17.7399 42.9 17.9566 42.7917 18.1733 42.7917C18.6066 42.7917 18.9316 42.7917 19.3649 42.7917C20.9899 42.9 22.5066 43.6584 23.5899 44.9584C24.1316 45.6084 24.4566 46.2584 24.7816 47.0167C24.8899 47.3417 24.9983 47.775 25.1066 48.2084C25.1066 48.6417 25.2149 48.9667 25.3233 49.2917C25.6483 49.9417 26.4066 50.375 27.1649 50.2667C27.4899 50.2667 27.9233 50.05 28.1399 49.8334C28.4649 49.6167 28.6816 49.2917 28.8983 48.9667C30.0899 47.8834 31.7149 47.45 33.2316 47.5584C34.7483 47.6667 36.2649 48.425 37.2399 49.6167C37.8899 50.375 39.0816 50.5917 39.9483 49.9417C40.3816 49.6167 40.5983 49.2917 40.8149 48.75C40.9233 48.3167 40.9233 47.775 41.1399 47.3417C41.6816 45.5 43.1983 43.875 45.1483 43.3334C46.1233 43.0084 47.0983 43.0084 48.0733 43.225C48.5066 43.3334 49.0483 43.3334 49.4816 43.1167C49.9149 42.9 50.2399 42.575 50.4566 42.1417C50.6733 41.7084 50.6733 41.1667 50.4566 40.7334C50.2399 40.3 50.0233 39.8667 49.8066 39.4334C49.4816 38.5667 49.3733 37.4834 49.4816 36.5084C49.6983 34.5584 50.9983 32.7167 52.8399 31.85C53.2733 31.6334 53.7066 31.4167 53.9233 30.9834C54.1399 30.55 54.3566 30.1167 54.2483 29.6834C54.1399 29.25 54.0316 28.8167 53.5983 28.4917C53.2733 28.1667 52.7316 28.0584 52.2983 27.8417C51.4316 27.3 50.6733 26.65 50.1316 25.7834C49.5899 24.9167 49.3733 23.9417 49.2649 22.9667C49.1566 21.9917 49.3733 20.9084 49.8066 20.0417C50.0233 19.6084 50.2399 19.175 50.2399 18.7417C50.0233 18.0917 49.9149 17.6584 49.6983 17.3334Z" fill="#5161CF"/>
<path d="M32.6899 40.5167C38.673 40.5167 43.5232 35.6665 43.5232 29.6834C43.5232 23.7003 38.673 18.85 32.6899 18.85C26.7068 18.85 21.8566 23.7003 21.8566 29.6834C21.8566 35.6665 26.7068 40.5167 32.6899 40.5167Z" fill="white"/>
<path d="M42.5483 24.05C44.0649 26.65 44.3899 29.7917 43.6316 32.6084C42.8733 35.425 40.9233 37.9167 38.4316 39.4334C35.9399 40.95 32.7983 41.3834 29.8733 40.625C26.9483 39.8667 24.3483 38.025 22.8316 35.425C21.3149 32.825 20.7733 29.575 21.5316 26.65C22.2899 23.725 24.2399 21.0167 26.9483 19.5C29.6566 17.9834 32.9066 17.6584 35.7233 18.525C38.5399 19.5 41.0316 21.45 42.5483 24.05ZM42.1149 24.2667C40.5983 21.775 38.2149 20.0417 35.3983 19.3917C32.6899 18.7417 29.7649 19.175 27.3816 20.5834C24.9983 21.9917 23.1566 24.2667 22.3983 26.975C21.6399 29.6834 21.9649 32.6084 23.3733 35.1C24.6733 37.5917 27.0566 39.4334 29.8733 40.3C32.5816 41.0584 35.7233 40.7334 38.2149 39.325C40.7066 37.9167 42.6566 35.425 43.3066 32.6084C44.0649 29.7917 43.6316 26.7584 42.1149 24.2667Z" fill="#5161CF"/>
</g>
<defs>
<clipPath id="clip0_2_117">
<rect width="65" height="65" fill="white" transform="translate(0.189941)"/>
</clipPath>
</defs>
</svg>
